<?xml version="1.0" encoding="UTF-8"?>
<svg width="700px" height="306px" viewBox="0 0 700 306" version="1.1" xmlns="http://www.w3.org/2000/svg" xmlns:xlink="http://www.w3.org/1999/xlink">
    <title>Flux Difference Graphic</title>
    <g id="Flux-Difference-Graphic" stroke="none" stroke-width="1" fill="none" fill-rule="evenodd">
        <g id="Initial-Page-Load-Re" transform="translate(1.920000, 12.140000)" fill="#182B34" fill-rule="nonzero">
            <polygon id="Path" points="2.34 13.86 2.34 0.52 0 0.52 0 13.86"></polygon>
            <path d="M13.74,13.86 L13.74,7.06 C13.74,5.08 12.7,3.96 10.62,3.96 C9.1,3.96 7.86,4.76 7.22,5.52 L7.22,4.2 L5.12,4.2 L5.12,13.86 L7.22,13.86 L7.22,7.12 C7.7,6.46 8.62,5.82 9.7,5.82 C10.88,5.82 11.64,6.32 11.64,7.82 L11.64,13.86 L13.74,13.86 Z" id="Path"></path>
            <path d="M17.5,2.6 C18.22,2.6 18.8,2.02 18.8,1.3 C18.8,0.58 18.22,0 17.5,0 C16.8,0 16.2,0.58 16.2,1.3 C16.2,2.02 16.8,2.6 17.5,2.6 Z M18.56,13.86 L18.56,4.2 L16.46,4.2 L16.46,13.86 L18.56,13.86 Z" id="Shape"></path>
            <path d="M24.18,14.1 C25.16,14.1 25.78,13.84 26.16,13.48 L25.66,11.9 C25.5,12.08 25.12,12.24 24.72,12.24 C24.12,12.24 23.8,11.76 23.8,11.1 L23.8,6.04 L25.76,6.04 L25.76,4.2 L23.8,4.2 L23.8,1.56 L21.7,1.56 L21.7,4.2 L20.1,4.2 L20.1,6.04 L21.7,6.04 L21.7,11.62 C21.7,13.22 22.56,14.1 24.18,14.1 Z" id="Path"></path>
            <path d="M28.7,2.6 C29.42,2.6 30,2.02 30,1.3 C30,0.58 29.42,0 28.7,0 C28,0 27.4,0.58 27.4,1.3 C27.4,2.02 28,2.6 28.7,2.6 Z M29.76,13.86 L29.76,4.2 L27.66,4.2 L27.66,13.86 L29.76,13.86 Z" id="Shape"></path>
            <path d="M40.48,13.86 L40.48,7.46 C40.48,4.86 38.6,3.96 36.46,3.96 C34.92,3.96 33.52,4.46 32.4,5.52 L33.26,6.98 C34.1,6.16 35.04,5.76 36.12,5.76 C37.46,5.76 38.38,6.44 38.38,7.56 L38.38,9 C37.68,8.18 36.56,7.76 35.26,7.76 C33.68,7.76 31.9,8.68 31.9,10.9 C31.9,13.04 33.68,14.1 35.26,14.1 C36.54,14.1 37.66,13.64 38.38,12.82 L38.38,13.86 L40.48,13.86 Z M38.38,11.66 C37.9,12.32 37,12.66 36.08,12.66 C34.9,12.66 34.02,11.98 34.02,10.94 C34.02,9.88 34.9,9.2 36.08,9.2 C37,9.2 37.9,9.54 38.38,10.2 L38.38,11.66 Z" id="Shape"></path>
            <polygon id="Path" points="45.3 13.86 45.3 0.52 43.2 0.52 43.2 13.86"></polygon>
            <path d="M55.56,13.86 L55.56,8.88 L59.08,8.88 C61.86,8.88 63.44,6.96 63.44,4.7 C63.44,2.44 61.88,0.52 59.08,0.52 L53.22,0.52 L53.22,13.86 L55.56,13.86 Z M61.04,4.7 C61.04,5.98 60.08,6.82 58.76,6.82 L55.56,6.82 L55.56,2.58 L58.76,2.58 C60.08,2.58 61.04,3.42 61.04,4.7 Z" id="Shape"></path>
            <path d="M72.92,13.86 L72.92,7.46 C72.92,4.86 71.04,3.96 68.9,3.96 C67.36,3.96 65.96,4.46 64.84,5.52 L65.7,6.98 C66.54,6.16 67.48,5.76 68.56,5.76 C69.9,5.76 70.82,6.44 70.82,7.56 L70.82,9 C70.12,8.18 69,7.76 67.7,7.76 C66.12,7.76 64.34,8.68 64.34,10.9 C64.34,13.04 66.12,14.1 67.7,14.1 C68.98,14.1 70.1,13.64 70.82,12.82 L70.82,13.86 L72.92,13.86 Z M70.82,11.66 C70.34,12.32 69.44,12.66 68.52,12.66 C67.34,12.66 66.46,11.98 66.46,10.94 C66.46,9.88 67.34,9.2 68.52,9.2 C69.44,9.2 70.34,9.54 70.82,10.2 L70.82,11.66 Z" id="Shape"></path>
            <path d="M75.52,16.34 C76.7,17.42 77.92,17.78 79.56,17.78 C81.94,17.78 84.52,16.84 84.52,13.36 L84.52,4.2 L82.42,4.2 L82.42,5.54 C81.64,4.52 80.54,3.96 79.32,3.96 C76.84,3.96 75.04,5.8 75.04,8.92 C75.04,12.1 76.86,13.88 79.32,13.88 C80.58,13.88 81.68,13.24 82.42,12.28 L82.42,13.44 C82.42,15.42 80.94,16.06 79.56,16.06 C78.28,16.06 77.28,15.72 76.5,14.82 L75.52,16.34 Z M82.42,10.72 C81.96,11.44 80.92,12.02 79.94,12.02 C78.28,12.02 77.22,10.78 77.22,8.92 C77.22,7.06 78.28,5.82 79.94,5.82 C80.92,5.82 81.96,6.4 82.42,7.12 L82.42,10.72 Z" id="Shape"></path>
            <path d="M86.64,9.02 C86.64,12.08 88.8,14.1 91.7,14.1 C93.24,14.1 94.66,13.62 95.62,12.7 L94.66,11.32 C93.98,12 92.86,12.38 91.92,12.38 C90.1,12.38 89,11.18 88.84,9.72 L96.3,9.72 L96.3,9.22 C96.3,6.18 94.44,3.96 91.54,3.96 C88.68,3.96 86.64,6.22 86.64,9.02 Z M91.54,5.68 C93.44,5.68 94.22,7.1 94.26,8.24 L88.82,8.24 C88.92,7.06 89.74,5.68 91.54,5.68 Z" id="Shape"></path>
            <polygon id="Path" points="111.8 13.86 111.8 11.8 105.92 11.8 105.92 0.52 103.58 0.52 103.58 13.86"></polygon>
            <path d="M117.92,14.1 C121.02,14.1 122.9,11.8 122.9,9.02 C122.9,6.26 121.02,3.96 117.92,3.96 C114.86,3.96 112.96,6.26 112.96,9.02 C112.96,11.8 114.86,14.1 117.92,14.1 Z M117.92,12.24 C116.14,12.24 115.14,10.74 115.14,9.02 C115.14,7.32 116.14,5.82 117.92,5.82 C119.72,5.82 120.72,7.32 120.72,9.02 C120.72,10.74 119.72,12.24 117.92,12.24 Z" id="Shape"></path>
            <path d="M133.02,13.86 L133.02,7.46 C133.02,4.86 131.14,3.96 129,3.96 C127.46,3.96 126.06,4.46 124.94,5.52 L125.8,6.98 C126.64,6.16 127.58,5.76 128.66,5.76 C130,5.76 130.92,6.44 130.92,7.56 L130.92,9 C130.22,8.18 129.1,7.76 127.8,7.76 C126.22,7.76 124.44,8.68 124.44,10.9 C124.44,13.04 126.22,14.1 127.8,14.1 C129.08,14.1 130.2,13.64 130.92,12.82 L130.92,13.86 L133.02,13.86 Z M130.92,11.66 C130.44,12.32 129.54,12.66 128.62,12.66 C127.44,12.66 126.56,11.98 126.56,10.94 C126.56,9.88 127.44,9.2 128.62,9.2 C129.54,9.2 130.44,9.54 130.92,10.2 L130.92,11.66 Z" id="Shape"></path>
            <path d="M144.64,13.86 L144.64,0.52 L142.54,0.52 L142.54,5.54 C141.76,4.52 140.64,3.96 139.44,3.96 C136.94,3.96 135.14,5.92 135.14,9.04 C135.14,12.22 136.96,14.1 139.44,14.1 C140.68,14.1 141.8,13.5 142.54,12.54 L142.54,13.86 L144.64,13.86 Z M142.54,10.96 C142.06,11.68 141.04,12.24 140.04,12.24 C138.38,12.24 137.32,10.9 137.32,9.04 C137.32,7.16 138.38,5.82 140.04,5.82 C141.04,5.82 142.06,6.4 142.54,7.12 L142.54,10.96 Z" id="Shape"></path>
            <path d="M162.88,13.86 L159.62,8.62 C161.22,8.36 162.78,7.08 162.78,4.7 C162.78,2.24 161.06,0.52 158.42,0.52 L152.56,0.52 L152.56,13.86 L154.9,13.86 L154.9,8.88 L157.22,8.88 L160.18,13.86 L162.88,13.86 Z M160.38,4.7 C160.38,5.98 159.42,6.82 158.1,6.82 L154.9,6.82 L154.9,2.58 L158.1,2.58 C159.42,2.58 160.38,3.42 160.38,4.7 Z" id="Shape"></path>
            <path d="M163.86,9.02 C163.86,12.08 166.02,14.1 168.92,14.1 C170.46,14.1 171.88,13.62 172.84,12.7 L171.88,11.32 C171.2,12 170.08,12.38 169.14,12.38 C167.32,12.38 166.22,11.18 166.06,9.72 L173.52,9.72 L173.52,9.22 C173.52,6.18 171.66,3.96 168.76,3.96 C165.9,3.96 163.86,6.22 163.86,9.02 Z M168.76,5.68 C170.66,5.68 171.44,7.1 171.48,8.24 L166.04,8.24 C166.14,7.06 166.96,5.68 168.76,5.68 Z" id="Shape"></path>
            <path d="M174.76,12.6 C175.76,13.58 177.26,14.1 178.9,14.1 C181.5,14.1 182.92,12.8 182.92,11.1 C182.92,8.82 180.86,8.34 179.18,7.98 C178.04,7.72 177.08,7.46 177.08,6.72 C177.08,6.04 177.78,5.64 178.88,5.64 C180.08,5.64 181.16,6.14 181.74,6.8 L182.62,5.32 C181.74,4.54 180.5,3.96 178.86,3.96 C176.42,3.96 175.06,5.32 175.06,6.9 C175.06,9.06 177.04,9.5 178.7,9.86 C179.88,10.12 180.9,10.42 180.9,11.26 C180.9,11.98 180.26,12.44 179,12.44 C177.74,12.44 176.4,11.78 175.72,11.08 L174.76,12.6 Z" id="Path"></path>
            <path d="M186.08,2.6 C186.8,2.6 187.38,2.02 187.38,1.3 C187.38,0.58 186.8,0 186.08,0 C185.38,0 184.78,0.58 184.78,1.3 C184.78,2.02 185.38,2.6 186.08,2.6 Z M187.14,13.86 L187.14,4.2 L185.04,4.2 L185.04,13.86 L187.14,13.86 Z" id="Shape"></path>
            <polygon id="Path" points="197.08 13.86 197.08 12.04 192.18 12.04 197 5.74 197 4.2 189.42 4.2 189.42 6.04 194.2 6.04 189.42 12.28 189.42 13.86"></polygon>
            <path d="M200.42,2.6 C201.14,2.6 201.72,2.02 201.72,1.3 C201.72,0.58 201.14,0 200.42,0 C199.72,0 199.12,0.58 199.12,1.3 C199.12,2.02 199.72,2.6 200.42,2.6 Z M201.48,13.86 L201.48,4.2 L199.38,4.2 L199.38,13.86 L201.48,13.86 Z" id="Shape"></path>
            <path d="M212.82,13.86 L212.82,7.06 C212.82,5.08 211.78,3.96 209.7,3.96 C208.18,3.96 206.94,4.76 206.3,5.52 L206.3,4.2 L204.2,4.2 L204.2,13.86 L206.3,13.86 L206.3,7.12 C206.78,6.46 207.7,5.82 208.78,5.82 C209.96,5.82 210.72,6.32 210.72,7.82 L210.72,13.86 L212.82,13.86 Z" id="Path"></path>
            <path d="M215.42,16.34 C216.6,17.42 217.82,17.78 219.46,17.78 C221.84,17.78 224.42,16.84 224.42,13.36 L224.42,4.2 L222.32,4.2 L222.32,5.54 C221.54,4.52 220.44,3.96 219.22,3.96 C216.74,3.96 214.94,5.8 214.94,8.92 C214.94,12.1 216.76,13.88 219.22,13.88 C220.48,13.88 221.58,13.24 222.32,12.28 L222.32,13.44 C222.32,15.42 220.84,16.06 219.46,16.06 C218.18,16.06 217.18,15.72 216.4,14.82 L215.42,16.34 Z M222.32,10.72 C221.86,11.44 220.82,12.02 219.84,12.02 C218.18,12.02 217.12,10.78 217.12,8.92 C217.12,7.06 218.18,5.82 219.84,5.82 C220.82,5.82 221.86,6.4 222.32,7.12 L222.32,10.72 Z" id="Shape"></path>
            <path d="M241.58,13.86 L241.58,11.8 L235.66,11.8 C239.24,9.1 241.5,6.9 241.5,4.44 C241.5,1.78 239.24,0.32 236.66,0.32 C234.8,0.32 232.92,1.04 231.74,2.46 L233.1,4 C233.94,3.04 235.14,2.4 236.7,2.4 C237.92,2.4 239.12,3.04 239.12,4.44 C239.12,6.36 237.1,8.1 231.92,12.02 L231.92,13.86 L241.58,13.86 Z" id="Path"></path>
            <path d="M243.94,12.04 C245.02,13.32 246.6,14.1 248.9,14.1 C251.88,14.1 253.98,12.36 253.98,9.58 C253.98,6.86 251.96,5.28 249.72,5.28 C248.44,5.28 247.34,5.8 246.7,6.44 L246.7,2.58 L253.1,2.58 L253.1,0.52 L244.36,0.52 L244.36,7.98 L246.02,8.46 C246.86,7.66 247.8,7.3 248.94,7.3 C250.58,7.3 251.62,8.24 251.62,9.68 C251.62,10.98 250.56,12.02 248.88,12.02 C247.38,12.02 246.18,11.46 245.28,10.44 L243.94,12.04 Z" id="Path"></path>
            <polygon id="Path" points="263.72 13.86 263.72 0.52 261.38 0.52 261.38 13.86"></polygon>
            <path d="M280.44,13.86 L280.44,6.88 C280.44,4.92 279.44,3.96 277.66,3.96 C276.22,3.96 274.94,4.86 274.38,5.74 C274.06,4.68 273.18,3.96 271.74,3.96 C270.28,3.96 269,4.92 268.6,5.52 L268.6,4.2 L266.5,4.2 L266.5,13.86 L268.6,13.86 L268.6,7.12 C269.04,6.48 269.9,5.82 270.82,5.82 C271.96,5.82 272.42,6.52 272.42,7.56 L272.42,13.86 L274.52,13.86 L274.52,7.1 C274.94,6.48 275.82,5.82 276.76,5.82 C277.88,5.82 278.34,6.52 278.34,7.56 L278.34,13.86 L280.44,13.86 Z" id="Path"></path>
            <path d="M291.16,13.86 L291.16,7.46 C291.16,4.86 289.28,3.96 287.14,3.96 C285.6,3.96 284.2,4.46 283.08,5.52 L283.94,6.98 C284.78,6.16 285.72,5.76 286.8,5.76 C288.14,5.76 289.06,6.44 289.06,7.56 L289.06,9 C288.36,8.18 287.24,7.76 285.94,7.76 C284.36,7.76 282.58,8.68 282.58,10.9 C282.58,13.04 284.36,14.1 285.94,14.1 C287.22,14.1 288.34,13.64 289.06,12.82 L289.06,13.86 L291.16,13.86 Z M289.06,11.66 C288.58,12.32 287.68,12.66 286.76,12.66 C285.58,12.66 284.7,11.98 284.7,10.94 C284.7,9.88 285.58,9.2 286.76,9.2 C287.68,9.2 288.58,9.54 289.06,10.2 L289.06,11.66 Z" id="Shape"></path>
            <path d="M293.76,16.34 C294.94,17.42 296.16,17.78 297.8,17.78 C300.18,17.78 302.76,16.84 302.76,13.36 L302.76,4.2 L300.66,4.2 L300.66,5.54 C299.88,4.52 298.78,3.96 297.56,3.96 C295.08,3.96 293.28,5.8 293.28,8.92 C293.28,12.1 295.1,13.88 297.56,13.88 C298.82,13.88 299.92,13.24 300.66,12.28 L300.66,13.44 C300.66,15.42 299.18,16.06 297.8,16.06 C296.52,16.06 295.52,15.72 294.74,14.82 L293.76,16.34 Z M300.66,10.72 C300.2,11.44 299.16,12.02 298.18,12.02 C296.52,12.02 295.46,10.78 295.46,8.92 C295.46,7.06 296.52,5.82 298.18,5.82 C299.16,5.82 300.2,6.4 300.66,7.12 L300.66,10.72 Z" id="Shape"></path>
            <path d="M304.88,9.02 C304.88,12.08 307.04,14.1 309.94,14.1 C311.48,14.1 312.9,13.62 313.86,12.7 L312.9,11.32 C312.22,12 311.1,12.38 310.16,12.38 C308.34,12.38 307.24,11.18 307.08,9.72 L314.54,9.72 L314.54,9.22 C314.54,6.18 312.68,3.96 309.78,3.96 C306.92,3.96 304.88,6.22 304.88,9.02 Z M309.78,5.68 C311.68,5.68 312.46,7.1 312.5,8.24 L307.06,8.24 C307.16,7.06 307.98,5.68 309.78,5.68 Z" id="Shape"></path>
            <path d="M315.78,12.6 C316.78,13.58 318.28,14.1 319.92,14.1 C322.52,14.1 323.94,12.8 323.94,11.1 C323.94,8.82 321.88,8.34 320.2,7.98 C319.06,7.72 318.1,7.46 318.1,6.72 C318.1,6.04 318.8,5.64 319.9,5.64 C321.1,5.64 322.18,6.14 322.76,6.8 L323.64,5.32 C322.76,4.54 321.52,3.96 319.88,3.96 C317.44,3.96 316.08,5.32 316.08,6.9 C316.08,9.06 318.06,9.5 319.72,9.86 C320.9,10.12 321.92,10.42 321.92,11.26 C321.92,11.98 321.28,12.44 320.02,12.44 C318.76,12.44 317.42,11.78 316.74,11.08 L315.78,12.6 Z" id="Path"></path>
        </g>
        <line x1="31.5" y1="244.5" x2="418.5" y2="244.5" id="Line-2" stroke="#979797" stroke-linecap="square"></line>
        <line x1="31.5" y1="191.5" x2="418.5" y2="191.5" id="Line-2" stroke-opacity="0.204572771" stroke="#979797" stroke-linecap="square" stroke-dasharray="5"></line>
        <line x1="31.5" y1="138.5" x2="418.5" y2="138.5" id="Line-2" stroke-opacity="0.204572771" stroke="#979797" stroke-linecap="square" stroke-dasharray="5"></line>
        <line x1="31.5" y1="85.5" x2="418.5" y2="85.5" id="Line-2" stroke-opacity="0.204572771" stroke="#979797" stroke-linecap="square" stroke-dasharray="5"></line>
        <g id="Craft-Local-FS-Volum" transform="translate(65.296000, 258.508000)" fill="#182B34" fill-rule="nonzero">
            <path d="M33.764,9.66 C35.724,9.66 36.872,8.68 37.586,7.56 L36.186,6.846 C35.738,7.63 34.842,8.204 33.764,8.204 C31.986,8.204 30.614,6.79 30.614,4.83 C30.614,2.87 31.986,1.456 33.764,1.456 C34.842,1.456 35.738,2.044 36.186,2.814 L37.586,2.1 C36.886,0.98 35.724,0 33.764,0 C31.076,0 28.934,1.96 28.934,4.83 C28.934,7.7 31.076,9.66 33.764,9.66 Z" id="Path"></path>
            <path d="M40.33,9.492 L40.33,4.886 C40.624,4.41 41.45,3.99 42.066,3.99 C42.248,3.99 42.402,4.004 42.528,4.032 L42.528,2.576 C41.646,2.576 40.834,3.08 40.33,3.724 L40.33,2.73 L38.86,2.73 L38.86,9.492 L40.33,9.492 Z" id="Path"></path>
            <path d="M49.318,9.492 L49.318,5.012 C49.318,3.192 48.002,2.562 46.504,2.562 C45.426,2.562 44.446,2.912 43.662,3.654 L44.264,4.676 C44.852,4.102 45.51,3.822 46.266,3.822 C47.204,3.822 47.848,4.298 47.848,5.082 L47.848,6.09 C47.358,5.516 46.574,5.222 45.664,5.222 C44.558,5.222 43.312,5.866 43.312,7.42 C43.312,8.918 44.558,9.66 45.664,9.66 C46.56,9.66 47.344,9.338 47.848,8.764 L47.848,9.492 L49.318,9.492 Z M47.848,7.952 C47.512,8.414 46.882,8.652 46.238,8.652 C45.412,8.652 44.796,8.176 44.796,7.448 C44.796,6.706 45.412,6.23 46.238,6.23 C46.882,6.23 47.512,6.468 47.848,6.93 L47.848,7.952 Z" id="Shape"></path>
            <path d="M54.414,4.018 L54.414,2.73 L53.042,2.73 L53.042,2.352 C53.042,1.596 53.406,1.218 53.98,1.218 C54.19,1.218 54.4,1.26 54.568,1.358 L54.89,0.28 C54.596,0.112 54.176,0.014 53.714,0.014 C52.468,0.014 51.572,0.84 51.572,2.352 L51.572,2.73 L50.452,2.73 L50.452,4.018 L51.572,4.018 L51.572,9.492 L53.042,9.492 L53.042,4.018 L54.414,4.018 Z" id="Path"></path>
            <path d="M57.564,9.66 C58.25,9.66 58.684,9.478 58.95,9.226 L58.6,8.12 C58.488,8.246 58.222,8.358 57.942,8.358 C57.522,8.358 57.298,8.022 57.298,7.56 L57.298,4.018 L58.67,4.018 L58.67,2.73 L57.298,2.73 L57.298,0.882 L55.828,0.882 L55.828,2.73 L54.708,2.73 L54.708,4.018 L55.828,4.018 L55.828,7.924 C55.828,9.044 56.43,9.66 57.564,9.66 Z" id="Path"></path>
            <polygon id="Path" points="4.716 24.492 4.908 23.604 1.176 23.604 2.76 16.488 1.764 16.488 0 24.492"></polygon>
            <path d="M6.144,22.068 C6.144,23.604 7.14,24.636 8.796,24.636 C10.656,24.636 12.024,22.956 12.024,21.132 C12.024,19.596 11.016,18.552 9.372,18.552 C7.5,18.552 6.144,20.244 6.144,22.068 Z M11.076,21.156 C11.076,22.524 10.14,23.832 8.82,23.832 C7.728,23.832 7.092,23.124 7.092,22.032 C7.092,20.664 8.028,19.356 9.348,19.356 C10.44,19.356 11.076,20.064 11.076,21.156 Z" id="Shape"></path>
            <path d="M13.008,22.044 C13.008,23.664 14.112,24.636 15.672,24.636 C16.596,24.636 17.244,24.252 17.736,23.748 L17.22,23.148 C16.872,23.544 16.356,23.832 15.756,23.832 C14.736,23.832 13.944,23.22 13.944,22.032 C13.944,20.64 14.844,19.356 16.296,19.356 C16.896,19.356 17.46,19.62 17.76,20.148 L18.444,19.632 C18.048,18.972 17.34,18.552 16.272,18.552 C14.436,18.552 13.008,20.136 13.008,22.044 Z" id="Path"></path>
            <path d="M24,19.608 C23.616,18.972 22.884,18.552 21.984,18.552 C20.112,18.552 18.948,20.364 18.948,22.248 C18.948,23.76 19.86,24.636 21.192,24.636 C21.972,24.636 22.62,24.264 23.1,23.664 L22.92,24.492 L23.82,24.492 L25.104,18.696 L24.204,18.696 L24,19.608 Z M19.896,22.08 C19.896,20.688 20.784,19.356 22.104,19.356 C22.944,19.356 23.568,19.776 23.856,20.292 L23.28,22.848 C22.908,23.388 22.236,23.832 21.516,23.832 C20.544,23.832 19.896,23.16 19.896,22.08 Z" id="Shape"></path>
            <polygon id="Path" points="26.52 24.492 28.284 16.488 27.384 16.488 25.62 24.492"></polygon>
            <polygon id="Path" points="32.448 24.492 33.24 20.844 37.416 20.844 37.608 19.956 33.444 19.956 34.02 17.376 38.268 17.376 38.46 16.488 33.216 16.488 31.452 24.492"></polygon>
            <path d="M37.956,23.208 C38.508,24.024 39.756,24.636 41.196,24.636 C43.08,24.636 44.112,23.376 44.112,22.104 C44.112,20.82 42.876,20.316 41.784,19.872 C40.92,19.524 40.14,19.2 40.14,18.564 C40.14,17.88 40.86,17.244 41.796,17.244 C42.672,17.244 43.584,17.592 44.112,18.324 L44.796,17.628 C44.232,16.848 43.14,16.368 41.904,16.368 C40.248,16.368 39.072,17.46 39.072,18.696 C39.072,19.944 40.272,20.424 41.352,20.856 C42.228,21.204 43.044,21.54 43.044,22.26 C43.044,22.932 42.528,23.748 41.28,23.748 C40.152,23.748 39.192,23.256 38.64,22.488 L37.956,23.208 Z" id="Path"></path>
            <polygon id="Path" points="51.804 24.492 56.796 16.488 55.608 16.488 51.372 23.4 50.196 16.488 49.116 16.488 50.568 24.492"></polygon>
            <path d="M55.548,22.068 C55.548,23.604 56.544,24.636 58.2,24.636 C60.06,24.636 61.428,22.956 61.428,21.132 C61.428,19.596 60.42,18.552 58.776,18.552 C56.904,18.552 55.548,20.244 55.548,22.068 Z M60.48,21.156 C60.48,22.524 59.544,23.832 58.224,23.832 C57.132,23.832 56.496,23.124 56.496,22.032 C56.496,20.664 57.432,19.356 58.752,19.356 C59.844,19.356 60.48,20.064 60.48,21.156 Z" id="Shape"></path>
            <polygon id="Path" points="63.084 24.492 64.848 16.488 63.948 16.488 62.184 24.492"></polygon>
            <path d="M66.168,18.696 L65.28,22.716 C65.256,22.836 65.22,23.088 65.22,23.196 C65.22,24.132 65.916,24.636 66.948,24.636 C67.776,24.636 68.484,24.132 68.988,23.652 L68.796,24.492 L69.696,24.492 L70.98,18.696 L70.08,18.696 L69.156,22.92 C68.7,23.376 68.028,23.832 67.368,23.832 C66.684,23.832 66.168,23.568 66.168,22.896 C66.168,22.776 66.204,22.608 66.228,22.488 L67.068,18.696 L66.168,18.696 Z" id="Path"></path>
            <path d="M79.392,24.492 L80.28,20.472 C80.304,20.328 80.34,20.124 80.34,19.992 C80.34,19.056 79.62,18.552 78.816,18.552 C77.976,18.552 77.268,19.092 76.8,19.656 L76.8,19.62 C76.8,19.284 76.344,18.552 75.312,18.552 C74.484,18.552 73.812,19.164 73.488,19.536 L73.68,18.696 L72.78,18.696 L71.496,24.492 L72.396,24.492 L73.332,20.268 C73.74,19.8 74.34,19.356 74.892,19.356 C75.552,19.356 75.888,19.728 75.9,20.184 C75.9,20.364 75.876,20.448 75.852,20.604 L74.988,24.492 L75.888,24.492 L76.824,20.268 C77.232,19.788 77.844,19.356 78.408,19.356 C78.936,19.356 79.392,19.68 79.392,20.256 C79.392,20.4 79.356,20.544 79.344,20.604 L78.492,24.492 L79.392,24.492 Z" id="Path"></path>
            <path d="M81.42,22.068 C81.42,23.616 82.488,24.636 84.252,24.636 C84.996,24.636 85.764,24.36 86.28,23.952 L85.98,23.328 C85.512,23.7 84.876,23.892 84.312,23.892 C83.004,23.892 82.344,23.064 82.344,22.164 C82.344,22.08 82.356,21.936 82.356,21.888 L87.084,21.888 C87.12,21.72 87.18,21.36 87.18,21.084 C87.18,19.608 86.208,18.552 84.684,18.552 C82.848,18.552 81.42,20.148 81.42,22.068 Z M82.452,21.228 C82.632,20.196 83.532,19.296 84.6,19.296 C85.752,19.296 86.364,20.04 86.364,21 C86.364,21.06 86.352,21.18 86.34,21.228 L82.452,21.228 Z" id="Shape"></path>
        </g>
        <g id="Flux-Local-FS-Volume" transform="translate(181.296000, 257.662000)" fill="#182B34" fill-rule="nonzero">
            <polygon id="Path" points="33.274 9.338 33.274 5.306 37.936 5.306 37.936 3.864 33.274 3.864 33.274 1.442 38.034 1.442 38.034 0 31.636 0 31.636 9.338"></polygon>
            <polygon id="Path" points="40.932 9.338 40.932 0 39.462 0 39.462 9.338"></polygon>
            <path d="M48.87,9.338 L48.87,2.576 L47.4,2.576 L47.4,7.322 C47.05,7.784 46.406,8.204 45.664,8.204 C44.838,8.204 44.306,7.882 44.306,6.832 L44.306,2.576 L42.836,2.576 L42.836,7.364 C42.836,8.75 43.55,9.506 45.006,9.506 C46.07,9.506 46.91,8.988 47.4,8.442 L47.4,9.338 L48.87,9.338 Z" id="Path"></path>
            <polygon id="Path" points="56.696 9.338 54.204 5.866 56.542 2.576 54.89 2.576 53.294 4.872 51.684 2.576 50.032 2.576 52.37 5.866 49.892 9.338 51.53 9.338 53.294 6.846 55.044 9.338"></polygon>
            <polygon id="Path" points="4.716 24.338 4.908 23.45 1.176 23.45 2.76 16.334 1.764 16.334 0 24.338"></polygon>
            <path d="M6.144,21.914 C6.144,23.45 7.14,24.482 8.796,24.482 C10.656,24.482 12.024,22.802 12.024,20.978 C12.024,19.442 11.016,18.398 9.372,18.398 C7.5,18.398 6.144,20.09 6.144,21.914 Z M11.076,21.002 C11.076,22.37 10.14,23.678 8.82,23.678 C7.728,23.678 7.092,22.97 7.092,21.878 C7.092,20.51 8.028,19.202 9.348,19.202 C10.44,19.202 11.076,19.91 11.076,21.002 Z" id="Shape"></path>
            <path d="M13.008,21.89 C13.008,23.51 14.112,24.482 15.672,24.482 C16.596,24.482 17.244,24.098 17.736,23.594 L17.22,22.994 C16.872,23.39 16.356,23.678 15.756,23.678 C14.736,23.678 13.944,23.066 13.944,21.878 C13.944,20.486 14.844,19.202 16.296,19.202 C16.896,19.202 17.46,19.466 17.76,19.994 L18.444,19.478 C18.048,18.818 17.34,18.398 16.272,18.398 C14.436,18.398 13.008,19.982 13.008,21.89 Z" id="Path"></path>
            <path d="M24,19.454 C23.616,18.818 22.884,18.398 21.984,18.398 C20.112,18.398 18.948,20.21 18.948,22.094 C18.948,23.606 19.86,24.482 21.192,24.482 C21.972,24.482 22.62,24.11 23.1,23.51 L22.92,24.338 L23.82,24.338 L25.104,18.542 L24.204,18.542 L24,19.454 Z M19.896,21.926 C19.896,20.534 20.784,19.202 22.104,19.202 C22.944,19.202 23.568,19.622 23.856,20.138 L23.28,22.694 C22.908,23.234 22.236,23.678 21.516,23.678 C20.544,23.678 19.896,23.006 19.896,21.926 Z" id="Shape"></path>
            <polygon id="Path" points="26.52 24.338 28.284 16.334 27.384 16.334 25.62 24.338"></polygon>
            <polygon id="Path" points="32.448 24.338 33.24 20.69 37.416 20.69 37.608 19.802 33.444 19.802 34.02 17.222 38.268 17.222 38.46 16.334 33.216 16.334 31.452 24.338"></polygon>
            <path d="M37.956,23.054 C38.508,23.87 39.756,24.482 41.196,24.482 C43.08,24.482 44.112,23.222 44.112,21.95 C44.112,20.666 42.876,20.162 41.784,19.718 C40.92,19.37 40.14,19.046 40.14,18.41 C40.14,17.726 40.86,17.09 41.796,17.09 C42.672,17.09 43.584,17.438 44.112,18.17 L44.796,17.474 C44.232,16.694 43.14,16.214 41.904,16.214 C40.248,16.214 39.072,17.306 39.072,18.542 C39.072,19.79 40.272,20.27 41.352,20.702 C42.228,21.05 43.044,21.386 43.044,22.106 C43.044,22.778 42.528,23.594 41.28,23.594 C40.152,23.594 39.192,23.102 38.64,22.334 L37.956,23.054 Z" id="Path"></path>
            <polygon id="Path" points="51.804 24.338 56.796 16.334 55.608 16.334 51.372 23.246 50.196 16.334 49.116 16.334 50.568 24.338"></polygon>
            <path d="M55.548,21.914 C55.548,23.45 56.544,24.482 58.2,24.482 C60.06,24.482 61.428,22.802 61.428,20.978 C61.428,19.442 60.42,18.398 58.776,18.398 C56.904,18.398 55.548,20.09 55.548,21.914 Z M60.48,21.002 C60.48,22.37 59.544,23.678 58.224,23.678 C57.132,23.678 56.496,22.97 56.496,21.878 C56.496,20.51 57.432,19.202 58.752,19.202 C59.844,19.202 60.48,19.91 60.48,21.002 Z" id="Shape"></path>
            <polygon id="Path" points="63.084 24.338 64.848 16.334 63.948 16.334 62.184 24.338"></polygon>
            <path d="M66.168,18.542 L65.28,22.562 C65.256,22.682 65.22,22.934 65.22,23.042 C65.22,23.978 65.916,24.482 66.948,24.482 C67.776,24.482 68.484,23.978 68.988,23.498 L68.796,24.338 L69.696,24.338 L70.98,18.542 L70.08,18.542 L69.156,22.766 C68.7,23.222 68.028,23.678 67.368,23.678 C66.684,23.678 66.168,23.414 66.168,22.742 C66.168,22.622 66.204,22.454 66.228,22.334 L67.068,18.542 L66.168,18.542 Z" id="Path"></path>
            <path d="M79.392,24.338 L80.28,20.318 C80.304,20.174 80.34,19.97 80.34,19.838 C80.34,18.902 79.62,18.398 78.816,18.398 C77.976,18.398 77.268,18.938 76.8,19.502 L76.8,19.466 C76.8,19.13 76.344,18.398 75.312,18.398 C74.484,18.398 73.812,19.01 73.488,19.382 L73.68,18.542 L72.78,18.542 L71.496,24.338 L72.396,24.338 L73.332,20.114 C73.74,19.646 74.34,19.202 74.892,19.202 C75.552,19.202 75.888,19.574 75.9,20.03 C75.9,20.21 75.876,20.294 75.852,20.45 L74.988,24.338 L75.888,24.338 L76.824,20.114 C77.232,19.634 77.844,19.202 78.408,19.202 C78.936,19.202 79.392,19.526 79.392,20.102 C79.392,20.246 79.356,20.39 79.344,20.45 L78.492,24.338 L79.392,24.338 Z" id="Path"></path>
            <path d="M81.42,21.914 C81.42,23.462 82.488,24.482 84.252,24.482 C84.996,24.482 85.764,24.206 86.28,23.798 L85.98,23.174 C85.512,23.546 84.876,23.738 84.312,23.738 C83.004,23.738 82.344,22.91 82.344,22.01 C82.344,21.926 82.356,21.782 82.356,21.734 L87.084,21.734 C87.12,21.566 87.18,21.206 87.18,20.93 C87.18,19.454 86.208,18.398 84.684,18.398 C82.848,18.398 81.42,19.994 81.42,21.914 Z M82.452,21.074 C82.632,20.042 83.532,19.142 84.6,19.142 C85.752,19.142 86.364,19.886 86.364,20.846 C86.364,20.906 86.352,21.026 86.34,21.074 L82.452,21.074 Z" id="Shape"></path>
        </g>
        <g id="Flux-S3-FS-Volume" transform="translate(304.520000, 257.662000)" fill="#182B34" fill-rule="nonzero">
            <polygon id="Path" points="26.05 9.338 26.05 5.306 30.712 5.306 30.712 3.864 26.05 3.864 26.05 1.442 30.81 1.442 30.81 0 24.412 0 24.412 9.338"></polygon>
            <polygon id="Path" points="33.708 9.338 33.708 0 32.238 0 32.238 9.338"></polygon>
            <path d="M41.646,9.338 L41.646,2.576 L40.176,2.576 L40.176,7.322 C39.826,7.784 39.182,8.204 38.44,8.204 C37.614,8.204 37.082,7.882 37.082,6.832 L37.082,2.576 L35.612,2.576 L35.612,7.364 C35.612,8.75 36.326,9.506 37.782,9.506 C38.846,9.506 39.686,8.988 40.176,8.442 L40.176,9.338 L41.646,9.338 Z" id="Path"></path>
            <polygon id="Path" points="49.472 9.338 46.98 5.866 49.318 2.576 47.666 2.576 46.07 4.872 44.46 2.576 42.808 2.576 45.146 5.866 42.668 9.338 44.306 9.338 46.07 6.846 47.82 9.338"></polygon>
            <path d="M0,23.054 C0.552,23.87 1.8,24.482 3.24,24.482 C5.124,24.482 6.156,23.222 6.156,21.95 C6.156,20.666 4.92,20.162 3.828,19.718 C2.964,19.37 2.184,19.046 2.184,18.41 C2.184,17.726 2.904,17.09 3.84,17.09 C4.716,17.09 5.628,17.438 6.156,18.17 L6.84,17.474 C6.276,16.694 5.184,16.214 3.948,16.214 C2.292,16.214 1.116,17.306 1.116,18.542 C1.116,19.79 2.316,20.27 3.396,20.702 C4.272,21.05 5.088,21.386 5.088,22.106 C5.088,22.778 4.572,23.594 3.324,23.594 C2.196,23.594 1.236,23.102 0.684,22.334 L0,23.054 Z" id="Path"></path>
            <path d="M6.804,22.814 C7.236,23.822 8.508,24.482 9.864,24.482 C11.556,24.482 12.744,23.366 12.744,21.998 C12.744,21.038 12.06,20.462 11.28,20.282 C12.312,20.198 13.44,19.442 13.44,18.23 C13.44,16.946 12.288,16.214 10.68,16.214 C9.72,16.214 8.784,16.598 8.16,17.21 L8.58,17.894 C9.204,17.33 9.924,17.102 10.608,17.102 C11.724,17.102 12.432,17.654 12.432,18.374 C12.432,19.346 11.52,19.79 10.512,19.79 C10.188,19.79 9.588,19.79 9.42,19.778 L9.216,20.69 C9.348,20.678 9.66,20.678 9.984,20.678 C11.124,20.678 11.76,21.194 11.76,21.914 C11.76,22.874 11.052,23.594 9.852,23.594 C8.88,23.594 7.932,23.102 7.524,22.25 L6.804,22.814 Z" id="Path"></path>
            <polygon id="Path" points="17.904 24.338 18.696 20.69 22.872 20.69 23.064 19.802 18.9 19.802 19.476 17.222 23.724 17.222 23.916 16.334 18.672 16.334 16.908 24.338"></polygon>
            <path d="M23.412,23.054 C23.964,23.87 25.212,24.482 26.652,24.482 C28.536,24.482 29.568,23.222 29.568,21.95 C29.568,20.666 28.332,20.162 27.24,19.718 C26.376,19.37 25.596,19.046 25.596,18.41 C25.596,17.726 26.316,17.09 27.252,17.09 C28.128,17.09 29.04,17.438 29.568,18.17 L30.252,17.474 C29.688,16.694 28.596,16.214 27.36,16.214 C25.704,16.214 24.528,17.306 24.528,18.542 C24.528,19.79 25.728,20.27 26.808,20.702 C27.684,21.05 28.5,21.386 28.5,22.106 C28.5,22.778 27.984,23.594 26.736,23.594 C25.608,23.594 24.648,23.102 24.096,22.334 L23.412,23.054 Z" id="Path"></path>
            <polygon id="Path" points="37.26 24.338 42.252 16.334 41.064 16.334 36.828 23.246 35.652 16.334 34.572 16.334 36.024 24.338"></polygon>
            <path d="M41.004,21.914 C41.004,23.45 42,24.482 43.656,24.482 C45.516,24.482 46.884,22.802 46.884,20.978 C46.884,19.442 45.876,18.398 44.232,18.398 C42.36,18.398 41.004,20.09 41.004,21.914 Z M45.936,21.002 C45.936,22.37 45,23.678 43.68,23.678 C42.588,23.678 41.952,22.97 41.952,21.878 C41.952,20.51 42.888,19.202 44.208,19.202 C45.3,19.202 45.936,19.91 45.936,21.002 Z" id="Shape"></path>
            <polygon id="Path" points="48.54 24.338 50.304 16.334 49.404 16.334 47.64 24.338"></polygon>
            <path d="M51.624,18.542 L50.736,22.562 C50.712,22.682 50.676,22.934 50.676,23.042 C50.676,23.978 51.372,24.482 52.404,24.482 C53.232,24.482 53.94,23.978 54.444,23.498 L54.252,24.338 L55.152,24.338 L56.436,18.542 L55.536,18.542 L54.612,22.766 C54.156,23.222 53.484,23.678 52.824,23.678 C52.14,23.678 51.624,23.414 51.624,22.742 C51.624,22.622 51.66,22.454 51.684,22.334 L52.524,18.542 L51.624,18.542 Z" id="Path"></path>
            <path d="M64.848,24.338 L65.736,20.318 C65.76,20.174 65.796,19.97 65.796,19.838 C65.796,18.902 65.076,18.398 64.272,18.398 C63.432,18.398 62.724,18.938 62.256,19.502 L62.256,19.466 C62.256,19.13 61.8,18.398 60.768,18.398 C59.94,18.398 59.268,19.01 58.944,19.382 L59.136,18.542 L58.236,18.542 L56.952,24.338 L57.852,24.338 L58.788,20.114 C59.196,19.646 59.796,19.202 60.348,19.202 C61.008,19.202 61.344,19.574 61.356,20.03 C61.356,20.21 61.332,20.294 61.308,20.45 L60.444,24.338 L61.344,24.338 L62.28,20.114 C62.688,19.634 63.3,19.202 63.864,19.202 C64.392,19.202 64.848,19.526 64.848,20.102 C64.848,20.246 64.812,20.39 64.8,20.45 L63.948,24.338 L64.848,24.338 Z" id="Path"></path>
            <path d="M66.876,21.914 C66.876,23.462 67.944,24.482 69.708,24.482 C70.452,24.482 71.22,24.206 71.736,23.798 L71.436,23.174 C70.968,23.546 70.332,23.738 69.768,23.738 C68.46,23.738 67.8,22.91 67.8,22.01 C67.8,21.926 67.812,21.782 67.812,21.734 L72.54,21.734 C72.576,21.566 72.636,21.206 72.636,20.93 C72.636,19.454 71.664,18.398 70.14,18.398 C68.304,18.398 66.876,19.994 66.876,21.914 Z M67.908,21.074 C68.088,20.042 68.988,19.142 70.056,19.142 C71.208,19.142 71.82,19.886 71.82,20.846 C71.82,20.906 71.808,21.026 71.796,21.074 L67.908,21.074 Z" id="Shape"></path>
        </g>
        <path d="M74,63 L144,63 C146.209139,63 148,64.790861 148,67 L148,244 L148,244 L70,244 L70,67 C70,64.790861 71.790861,63 74,63 Z" id="Rectangle" fill="#6E6E6E"></path>
        <path d="M190,216 L260,216 C262.209139,216 264,217.790861 264,220 L264,244 L264,244 L186,244 L186,220 C186,217.790861 187.790861,216 190,216 Z" id="Rectangle" fill="#4983DB"></path>
        <path d="M306,221 L376,221 C378.209139,221 380,222.790861 380,225 L380,243.75 L380,243.75 L302,243.75 L302,225 C302,222.790861 303.790861,221 306,221 Z" id="Rectangle" fill="#4983DB"></path>
        <g id="17-s" transform="translate(99.334000, 46.996000)" fill="#182B34" fill-rule="nonzero">
            <polygon id="Path" points="3.528 8.004 3.528 0 2.304 0 0 2.328 0.816 3.18 2.124 1.824 2.124 8.004"></polygon>
            <polygon id="Path" points="7.368 8.004 10.476 0.972 10.476 0 4.704 0 4.704 1.236 8.856 1.236 5.832 8.004"></polygon>
            <path d="M14.16,7.248 C14.76,7.836 15.66,8.148 16.644,8.148 C18.204,8.148 19.056,7.368 19.056,6.348 C19.056,4.98 17.82,4.692 16.812,4.476 C16.128,4.32 15.552,4.164 15.552,3.72 C15.552,3.312 15.972,3.072 16.632,3.072 C17.352,3.072 18,3.372 18.348,3.768 L18.876,2.88 C18.348,2.412 17.604,2.064 16.62,2.064 C15.156,2.064 14.34,2.88 14.34,3.828 C14.34,5.124 15.528,5.388 16.524,5.604 C17.232,5.76 17.844,5.94 17.844,6.444 C17.844,6.876 17.46,7.152 16.704,7.152 C15.948,7.152 15.144,6.756 14.736,6.336 L14.16,7.248 Z" id="Path"></path>
        </g>
        <g id="2.6-s" transform="translate(212.472000, 199.876000)" fill="#182B34" fill-rule="nonzero">
            <path d="M5.904,8.124 L5.904,6.888 L2.352,6.888 C4.5,5.268 5.856,3.948 5.856,2.472 C5.856,0.876 4.5,0 2.952,0 C1.836,0 0.708,0.432 0,1.284 L0.816,2.208 C1.32,1.632 2.04,1.248 2.976,1.248 C3.708,1.248 4.428,1.632 4.428,2.472 C4.428,3.624 3.216,4.668 0.108,7.02 L0.108,8.124 L5.904,8.124 Z" id="Path"></path>
            <path d="M7.272,7.416 C7.272,7.872 7.656,8.256 8.112,8.256 C8.568,8.256 8.952,7.872 8.952,7.416 C8.952,6.96 8.568,6.576 8.112,6.576 C7.656,6.576 7.272,6.96 7.272,7.416 Z" id="Path"></path>
            <path d="M10.08,4.14 C10.08,6.36 11.028,8.268 13.38,8.268 C15.168,8.268 16.332,7.068 16.332,5.58 C16.332,3.876 15.096,3 13.656,3 C12.708,3 11.868,3.576 11.508,4.116 C11.496,4.044 11.496,3.972 11.496,3.888 C11.496,2.484 12.276,1.248 13.608,1.248 C14.376,1.248 14.832,1.512 15.252,1.956 L15.912,0.888 C15.372,0.36 14.604,0 13.608,0 C11.292,0 10.08,1.824 10.08,4.14 Z M14.916,5.628 C14.916,6.276 14.364,7.02 13.308,7.02 C12.072,7.02 11.604,6.012 11.52,5.148 C11.928,4.572 12.588,4.2 13.272,4.2 C14.148,4.2 14.916,4.644 14.916,5.628 Z" id="Shape"></path>
            <path d="M20.196,7.368 C20.796,7.956 21.696,8.268 22.68,8.268 C24.24,8.268 25.092,7.488 25.092,6.468 C25.092,5.1 23.856,4.812 22.848,4.596 C22.164,4.44 21.588,4.284 21.588,3.84 C21.588,3.432 22.008,3.192 22.668,3.192 C23.388,3.192 24.036,3.492 24.384,3.888 L24.912,3 C24.384,2.532 23.64,2.184 22.656,2.184 C21.192,2.184 20.376,3 20.376,3.948 C20.376,5.244 21.564,5.508 22.56,5.724 C23.268,5.88 23.88,6.06 23.88,6.564 C23.88,6.996 23.496,7.272 22.74,7.272 C21.984,7.272 21.18,6.876 20.772,6.456 L20.196,7.368 Z" id="Path"></path>
        </g>
        <g id="5-s" transform="translate(8.036000, 186.996000)" fill="#979797" fill-rule="nonzero">
            <path d="M-1.13686838e-13,6.864 C0.6,7.656 1.464,8.148 2.82,8.148 C4.428,8.148 5.664,7.14 5.664,5.508 C5.664,3.864 4.452,2.952 3.12,2.952 C2.316,2.952 1.632,3.288 1.248,3.672 L1.248,0.888 L5.148,0.888 L5.148,0 L0.252,0 L0.252,4.32 L0.984,4.572 C1.524,4.044 2.124,3.816 2.832,3.816 C3.912,3.816 4.668,4.488 4.668,5.544 C4.668,6.516 3.912,7.26 2.82,7.26 C1.836,7.26 1.14,6.876 0.612,6.204 L-1.13686838e-13,6.864 Z" id="Path"></path>
            <path d="M9.78,7.236 C10.368,7.86 11.172,8.148 12.12,8.148 C13.62,8.148 14.4,7.368 14.4,6.396 C14.4,5.112 13.236,4.824 12.228,4.596 C11.472,4.416 10.812,4.236 10.812,3.672 C10.812,3.156 11.304,2.796 12.096,2.796 C12.84,2.796 13.476,3.108 13.824,3.528 L14.244,2.904 C13.776,2.436 13.08,2.064 12.096,2.064 C10.716,2.064 9.936,2.832 9.936,3.732 C9.936,4.932 11.052,5.196 12.036,5.424 C12.816,5.616 13.524,5.82 13.524,6.456 C13.524,7.02 13.044,7.416 12.156,7.416 C11.364,7.416 10.632,7.032 10.248,6.588 L9.78,7.236 Z" id="Path"></path>
        </g>
        <g id="10-s" transform="translate(3.164000, 133.876000)" fill="#979797" fill-rule="nonzero">
            <polygon id="Path" points="2.88 8.124 2.88 0.12 2.004 0.12 0 2.184 0.6 2.796 1.884 1.44 1.884 8.124"></polygon>
            <path d="M4.428,4.128 C4.428,6.072 5.292,8.268 7.488,8.268 C9.672,8.268 10.548,6.072 10.548,4.128 C10.548,2.172 9.672,0 7.488,0 C5.292,0 4.428,2.172 4.428,4.128 Z M9.528,4.128 C9.528,5.724 9.012,7.38 7.488,7.38 C5.964,7.38 5.448,5.724 5.448,4.128 C5.448,2.532 5.964,0.888 7.488,0.888 C9.012,0.888 9.528,2.532 9.528,4.128 Z" id="Shape"></path>
            <path d="M14.652,7.356 C15.24,7.98 16.044,8.268 16.992,8.268 C18.492,8.268 19.272,7.488 19.272,6.516 C19.272,5.232 18.108,4.944 17.1,4.716 C16.344,4.536 15.684,4.356 15.684,3.792 C15.684,3.276 16.176,2.916 16.968,2.916 C17.712,2.916 18.348,3.228 18.696,3.648 L19.116,3.024 C18.648,2.556 17.952,2.184 16.968,2.184 C15.588,2.184 14.808,2.952 14.808,3.852 C14.808,5.052 15.924,5.316 16.908,5.544 C17.688,5.736 18.396,5.94 18.396,6.576 C18.396,7.14 17.916,7.536 17.028,7.536 C16.236,7.536 15.504,7.152 15.12,6.708 L14.652,7.356 Z" id="Path"></path>
        </g>
        <g id="15-s" transform="translate(3.428000, 80.996000)" fill="#979797" fill-rule="nonzero">
            <polygon id="Path" points="2.88 8.004 2.88 0 2.004 0 0 2.064 0.6 2.676 1.884 1.32 1.884 8.004"></polygon>
            <path d="M4.608,6.864 C5.208,7.656 6.072,8.148 7.428,8.148 C9.036,8.148 10.272,7.14 10.272,5.508 C10.272,3.864 9.06,2.952 7.728,2.952 C6.924,2.952 6.24,3.288 5.856,3.672 L5.856,0.888 L9.756,0.888 L9.756,0 L4.86,0 L4.86,4.32 L5.592,4.572 C6.132,4.044 6.732,3.816 7.44,3.816 C8.52,3.816 9.276,4.488 9.276,5.544 C9.276,6.516 8.52,7.26 7.428,7.26 C6.444,7.26 5.748,6.876 5.22,6.204 L4.608,6.864 Z" id="Path"></path>
            <path d="M14.388,7.236 C14.976,7.86 15.78,8.148 16.728,8.148 C18.228,8.148 19.008,7.368 19.008,6.396 C19.008,5.112 17.844,4.824 16.836,4.596 C16.08,4.416 15.42,4.236 15.42,3.672 C15.42,3.156 15.912,2.796 16.704,2.796 C17.448,2.796 18.084,3.108 18.432,3.528 L18.852,2.904 C18.384,2.436 17.688,2.064 16.704,2.064 C15.324,2.064 14.544,2.832 14.544,3.732 C14.544,4.932 15.66,5.196 16.644,5.424 C17.424,5.616 18.132,5.82 18.132,6.456 C18.132,7.02 17.652,7.416 16.764,7.416 C15.972,7.416 15.24,7.032 14.856,6.588 L14.388,7.236 Z" id="Path"></path>
        </g>
        <g id="2.1-s" transform="translate(330.338000, 204.876000)" fill="#182B34" fill-rule="nonzero">
            <path d="M5.904,8.124 L5.904,6.888 L2.352,6.888 C4.5,5.268 5.856,3.948 5.856,2.472 C5.856,0.876 4.5,0 2.952,0 C1.836,0 0.708,0.432 -2.27373675e-13,1.284 L0.816,2.208 C1.32,1.632 2.04,1.248 2.976,1.248 C3.708,1.248 4.428,1.632 4.428,2.472 C4.428,3.624 3.216,4.668 0.108,7.02 L0.108,8.124 L5.904,8.124 Z" id="Path"></path>
            <path d="M7.272,7.416 C7.272,7.872 7.656,8.256 8.112,8.256 C8.568,8.256 8.952,7.872 8.952,7.416 C8.952,6.96 8.568,6.576 8.112,6.576 C7.656,6.576 7.272,6.96 7.272,7.416 Z" id="Path"></path>
            <polygon id="Path" points="12.216 8.124 12.216 0.12 10.992 0.12 8.688 2.448 9.504 3.3 10.812 1.944 10.812 8.124"></polygon>
            <path d="M16.464,7.368 C17.064,7.956 17.964,8.268 18.948,8.268 C20.508,8.268 21.36,7.488 21.36,6.468 C21.36,5.1 20.124,4.812 19.116,4.596 C18.432,4.44 17.856,4.284 17.856,3.84 C17.856,3.432 18.276,3.192 18.936,3.192 C19.656,3.192 20.304,3.492 20.652,3.888 L21.18,3 C20.652,2.532 19.908,2.184 18.924,2.184 C17.46,2.184 16.644,3 16.644,3.948 C16.644,5.244 17.832,5.508 18.828,5.724 C19.536,5.88 20.148,6.06 20.148,6.564 C20.148,6.996 19.764,7.272 19.008,7.272 C18.252,7.272 17.448,6.876 17.04,6.456 L16.464,7.368 Z" id="Path"></path>
        </g>
        <g id="Time-to-fully-load-a" transform="translate(451.144000, 93.168000)" fill="#182B34" fill-rule="nonzero">
            <polygon id="Path" points="5.072 10.832 5.072 1.344 8.464 1.344 8.464 0.16 0.368 0.16 0.368 1.344 3.744 1.344 3.744 10.832"></polygon>
            <path d="M10.768,1.808 C11.216,1.808 11.584,1.44 11.584,0.992 C11.584,0.544 11.216,0.192 10.768,0.192 C10.336,0.192 9.968,0.544 9.968,0.992 C9.968,1.44 10.336,1.808 10.768,1.808 Z M11.376,10.832 L11.376,3.104 L10.176,3.104 L10.176,10.832 L11.376,10.832 Z" id="Shape"></path>
            <path d="M24.304,10.832 L24.304,5.248 C24.304,3.696 23.552,2.912 22.144,2.912 C21.024,2.912 19.984,3.648 19.552,4.352 C19.328,3.552 18.656,2.912 17.472,2.912 C16.336,2.912 15.296,3.728 14.976,4.224 L14.976,3.104 L13.776,3.104 L13.776,10.832 L14.976,10.832 L14.976,5.184 C15.392,4.56 16.224,3.984 17.008,3.984 C18.016,3.984 18.432,4.608 18.432,5.584 L18.432,10.832 L19.632,10.832 L19.632,5.168 C20.032,4.56 20.88,3.984 21.68,3.984 C22.672,3.984 23.104,4.608 23.104,5.584 L23.104,10.832 L24.304,10.832 Z" id="Path"></path>
            <path d="M26.256,6.96 C26.256,9.376 27.904,11.024 30.192,11.024 C31.456,11.024 32.496,10.608 33.264,9.84 L32.688,9.056 C32.08,9.68 31.184,10.032 30.304,10.032 C28.64,10.032 27.616,8.816 27.52,7.36 L33.776,7.36 L33.776,7.056 C33.776,4.736 32.4,2.912 30.064,2.912 C27.856,2.912 26.256,4.72 26.256,6.96 Z M30.048,3.904 C31.808,3.904 32.576,5.328 32.592,6.48 L27.52,6.48 C27.584,5.296 28.4,3.904 30.048,3.904 Z" id="Shape"></path>
            <path d="M41.792,11.024 C42.496,11.024 42.928,10.816 43.232,10.528 L42.88,9.632 C42.72,9.808 42.4,9.952 42.064,9.952 C41.536,9.952 41.28,9.536 41.28,8.96 L41.28,4.16 L42.848,4.16 L42.848,3.104 L41.28,3.104 L41.28,0.992 L40.08,0.992 L40.08,3.104 L38.8,3.104 L38.8,4.16 L40.08,4.16 L40.08,9.216 C40.08,10.368 40.656,11.024 41.792,11.024 Z" id="Path"></path>
            <path d="M47.92,11.024 C50.272,11.024 51.744,9.2 51.744,6.96 C51.744,4.72 50.272,2.912 47.92,2.912 C45.568,2.912 44.096,4.72 44.096,6.96 C44.096,9.2 45.568,11.024 47.92,11.024 Z M47.92,9.952 C46.272,9.952 45.344,8.544 45.344,6.96 C45.344,5.392 46.272,3.984 47.92,3.984 C49.568,3.984 50.48,5.392 50.48,6.96 C50.48,8.544 49.568,9.952 47.92,9.952 Z" id="Shape"></path>
            <path d="M60.928,4.16 L60.928,3.104 L59.36,3.104 L59.36,2.512 C59.36,1.536 59.792,0.992 60.576,0.992 C60.848,0.992 61.072,1.056 61.264,1.168 L61.568,0.272 C61.264,0.08 60.848,0 60.4,0 C59.056,0 58.16,0.912 58.16,2.512 L58.16,3.104 L56.88,3.104 L56.88,4.16 L58.16,4.16 L58.16,10.832 L59.36,10.832 L59.36,4.16 L60.928,4.16 Z" id="Path"></path>
            <path d="M68.768,10.832 L68.768,3.104 L67.568,3.104 L67.568,8.784 C67.12,9.408 66.224,9.952 65.28,9.952 C64.24,9.952 63.552,9.552 63.552,8.192 L63.552,3.104 L62.352,3.104 L62.352,8.56 C62.352,10.24 63.2,11.024 64.816,11.024 C65.968,11.024 66.976,10.416 67.568,9.744 L67.568,10.832 L68.768,10.832 Z" id="Path"></path>
            <polygon id="Path" points="72.368 10.832 72.368 0.16 71.168 0.16 71.168 10.832"></polygon>
            <polygon id="Path" points="75.968 10.832 75.968 0.16 74.768 0.16 74.768 10.832"></polygon>
            <path d="M77.936,13.856 C78.16,13.92 78.56,13.968 78.816,13.968 C79.84,13.952 80.624,13.52 81.088,12.4 L84.96,3.104 L83.648,3.104 L81.088,9.44 L78.512,3.104 L77.216,3.104 L80.448,10.912 L79.936,12.08 C79.664,12.72 79.312,12.896 78.784,12.896 C78.592,12.896 78.304,12.848 78.128,12.768 L77.936,13.856 Z" id="Path"></path>
            <polygon id="Path" points="91.536 10.832 91.536 0.16 90.336 0.16 90.336 10.832"></polygon>
            <path d="M97.312,11.024 C99.664,11.024 101.136,9.2 101.136,6.96 C101.136,4.72 99.664,2.912 97.312,2.912 C94.96,2.912 93.488,4.72 93.488,6.96 C93.488,9.2 94.96,11.024 97.312,11.024 Z M97.312,9.952 C95.664,9.952 94.736,8.544 94.736,6.96 C94.736,5.392 95.664,3.984 97.312,3.984 C98.96,3.984 99.872,5.392 99.872,6.96 C99.872,8.544 98.96,9.952 97.312,9.952 Z" id="Shape"></path>
            <path d="M109.12,10.832 L109.12,5.52 C109.12,3.648 107.76,2.912 106.128,2.912 C104.864,2.912 103.872,3.328 103.04,4.192 L103.6,5.024 C104.288,4.288 105.04,3.952 105.968,3.952 C107.088,3.952 107.92,4.544 107.92,5.584 L107.92,6.976 C107.296,6.256 106.416,5.92 105.36,5.92 C104.048,5.92 102.656,6.736 102.656,8.464 C102.656,10.144 104.048,11.024 105.36,11.024 C106.4,11.024 107.28,10.656 107.92,9.952 L107.92,10.832 L109.12,10.832 Z M107.92,9.2 C107.456,9.84 106.64,10.16 105.792,10.16 C104.672,10.16 103.888,9.456 103.888,8.48 C103.888,7.488 104.672,6.784 105.792,6.784 C106.64,6.784 107.456,7.104 107.92,7.744 L107.92,9.2 Z" id="Shape"></path>
            <path d="M118.32,10.832 L118.32,0.16 L117.12,0.16 L117.12,4.272 C116.496,3.424 115.552,2.912 114.512,2.912 C112.48,2.912 111.072,4.512 111.072,6.976 C111.072,9.488 112.496,11.024 114.512,11.024 C115.6,11.024 116.544,10.464 117.12,9.68 L117.12,10.832 L118.32,10.832 Z M117.12,8.736 C116.688,9.408 115.76,9.952 114.8,9.952 C113.248,9.952 112.32,8.688 112.32,6.976 C112.32,5.264 113.248,3.984 114.8,3.984 C115.76,3.984 116.688,4.56 117.12,5.232 L117.12,8.736 Z" id="Shape"></path>
            <path d="M130.88,10.832 L130.88,5.52 C130.88,3.648 129.52,2.912 127.888,2.912 C126.624,2.912 125.632,3.328 124.8,4.192 L125.36,5.024 C126.048,4.288 126.8,3.952 127.728,3.952 C128.848,3.952 129.68,4.544 129.68,5.584 L129.68,6.976 C129.056,6.256 128.176,5.92 127.12,5.92 C125.808,5.92 124.416,6.736 124.416,8.464 C124.416,10.144 125.808,11.024 127.12,11.024 C128.16,11.024 129.04,10.656 129.68,9.952 L129.68,10.832 L130.88,10.832 Z M129.68,9.2 C129.216,9.84 128.4,10.16 127.552,10.16 C126.432,10.16 125.648,9.456 125.648,8.48 C125.648,7.488 126.432,6.784 127.552,6.784 C128.4,6.784 129.216,7.104 129.68,7.744 L129.68,9.2 Z" id="Shape"></path>
            <path d="M138.608,9.664 C139.232,10.528 140.16,11.024 141.216,11.024 C143.248,11.024 144.656,9.456 144.656,6.96 C144.656,4.448 143.248,2.912 141.216,2.912 C140.128,2.912 139.168,3.472 138.608,4.256 L138.608,3.104 L137.408,3.104 L137.408,13.776 L138.608,13.776 L138.608,9.664 Z M143.392,6.96 C143.392,8.672 142.464,9.952 140.912,9.952 C139.968,9.952 139.024,9.376 138.608,8.704 L138.608,5.216 C139.024,4.544 139.968,3.984 140.912,3.984 C142.464,3.984 143.392,5.248 143.392,6.96 Z" id="Shape"></path>
            <path d="M152.624,10.832 L152.624,5.52 C152.624,3.648 151.264,2.912 149.632,2.912 C148.368,2.912 147.376,3.328 146.544,4.192 L147.104,5.024 C147.792,4.288 148.544,3.952 149.472,3.952 C150.592,3.952 151.424,4.544 151.424,5.584 L151.424,6.976 C150.8,6.256 149.92,5.92 148.864,5.92 C147.552,5.92 146.16,6.736 146.16,8.464 C146.16,10.144 147.552,11.024 148.864,11.024 C149.904,11.024 150.784,10.656 151.424,9.952 L151.424,10.832 L152.624,10.832 Z M151.424,9.2 C150.96,9.84 150.144,10.16 149.296,10.16 C148.176,10.16 147.392,9.456 147.392,8.48 C147.392,7.488 148.176,6.784 149.296,6.784 C150.144,6.784 150.96,7.104 151.424,7.744 L151.424,9.2 Z" id="Shape"></path>
            <path d="M155.008,12.816 C155.92,13.712 156.816,13.968 158.128,13.968 C160.016,13.968 161.808,13.168 161.808,10.608 L161.808,3.104 L160.608,3.104 L160.608,4.272 C159.984,3.424 159.056,2.912 158.016,2.912 C155.984,2.912 154.576,4.448 154.576,6.928 C154.576,9.424 156,10.928 158.016,10.928 C159.104,10.928 160.048,10.336 160.608,9.552 L160.608,10.656 C160.608,12.352 159.408,12.976 158.128,12.976 C157.024,12.976 156.256,12.688 155.616,11.92 L155.008,12.816 Z M160.608,8.608 C160.192,9.28 159.264,9.872 158.304,9.872 C156.752,9.872 155.824,8.624 155.824,6.928 C155.824,5.216 156.752,3.984 158.304,3.984 C159.264,3.984 160.192,4.56 160.608,5.232 L160.608,8.608 Z" id="Shape"></path>
            <path d="M163.76,6.96 C163.76,9.376 165.408,11.024 167.696,11.024 C168.96,11.024 170,10.608 170.768,9.84 L170.192,9.056 C169.584,9.68 168.688,10.032 167.808,10.032 C166.144,10.032 165.12,8.816 165.024,7.36 L171.28,7.36 L171.28,7.056 C171.28,4.736 169.904,2.912 167.568,2.912 C165.36,2.912 163.76,4.72 163.76,6.96 Z M167.552,3.904 C169.312,3.904 170.08,5.328 170.096,6.48 L165.024,6.48 C165.088,5.296 165.904,3.904 167.552,3.904 Z" id="Shape"></path>
            <path d="M0.608,26.96 C0.608,29.264 2.16,31.024 4.464,31.024 C5.872,31.024 6.704,30.448 7.296,29.68 L6.496,28.944 C5.984,29.632 5.328,29.952 4.528,29.952 C2.88,29.952 1.856,28.672 1.856,26.96 C1.856,25.248 2.88,23.984 4.528,23.984 C5.328,23.984 5.984,24.288 6.496,24.992 L7.296,24.256 C6.704,23.488 5.872,22.912 4.464,22.912 C2.16,22.912 0.608,24.672 0.608,26.96 Z" id="Path"></path>
            <path d="M12.352,31.024 C14.704,31.024 16.176,29.2 16.176,26.96 C16.176,24.72 14.704,22.912 12.352,22.912 C10,22.912 8.528,24.72 8.528,26.96 C8.528,29.2 10,31.024 12.352,31.024 Z M12.352,29.952 C10.704,29.952 9.776,28.544 9.776,26.96 C9.776,25.392 10.704,23.984 12.352,23.984 C14,23.984 14.912,25.392 14.912,26.96 C14.912,28.544 14,29.952 12.352,29.952 Z" id="Shape"></path>
            <path d="M24.544,30.832 L24.544,25.408 C24.544,23.728 23.696,22.912 22.08,22.912 C20.928,22.912 19.872,23.584 19.328,24.224 L19.328,23.104 L18.128,23.104 L18.128,30.832 L19.328,30.832 L19.328,25.184 C19.776,24.56 20.672,23.984 21.616,23.984 C22.656,23.984 23.344,24.416 23.344,25.776 L23.344,30.832 L24.544,30.832 Z" id="Path"></path>
            <path d="M28.896,31.024 C29.6,31.024 30.032,30.816 30.336,30.528 L29.984,29.632 C29.824,29.808 29.504,29.952 29.168,29.952 C28.64,29.952 28.384,29.536 28.384,28.96 L28.384,24.16 L29.952,24.16 L29.952,23.104 L28.384,23.104 L28.384,20.992 L27.184,20.992 L27.184,23.104 L25.904,23.104 L25.904,24.16 L27.184,24.16 L27.184,29.216 C27.184,30.368 27.76,31.024 28.896,31.024 Z" id="Path"></path>
            <path d="M37.68,30.832 L37.68,25.52 C37.68,23.648 36.32,22.912 34.688,22.912 C33.424,22.912 32.432,23.328 31.6,24.192 L32.16,25.024 C32.848,24.288 33.6,23.952 34.528,23.952 C35.648,23.952 36.48,24.544 36.48,25.584 L36.48,26.976 C35.856,26.256 34.976,25.92 33.92,25.92 C32.608,25.92 31.216,26.736 31.216,28.464 C31.216,30.144 32.608,31.024 33.92,31.024 C34.96,31.024 35.84,30.656 36.48,29.952 L36.48,30.832 L37.68,30.832 Z M36.48,29.2 C36.016,29.84 35.2,30.16 34.352,30.16 C33.232,30.16 32.448,29.456 32.448,28.48 C32.448,27.488 33.232,26.784 34.352,26.784 C35.2,26.784 36.016,27.104 36.48,27.744 L36.48,29.2 Z" id="Shape"></path>
            <path d="M40.672,21.808 C41.12,21.808 41.488,21.44 41.488,20.992 C41.488,20.544 41.12,20.192 40.672,20.192 C40.24,20.192 39.872,20.544 39.872,20.992 C39.872,21.44 40.24,21.808 40.672,21.808 Z M41.28,30.832 L41.28,23.104 L40.08,23.104 L40.08,30.832 L41.28,30.832 Z" id="Shape"></path>
            <path d="M50.096,30.832 L50.096,25.408 C50.096,23.728 49.248,22.912 47.632,22.912 C46.48,22.912 45.424,23.584 44.88,24.224 L44.88,23.104 L43.68,23.104 L43.68,30.832 L44.88,30.832 L44.88,25.184 C45.328,24.56 46.224,23.984 47.168,23.984 C48.208,23.984 48.896,24.416 48.896,25.776 L48.896,30.832 L50.096,30.832 Z" id="Path"></path>
            <path d="M53.088,21.808 C53.536,21.808 53.904,21.44 53.904,20.992 C53.904,20.544 53.536,20.192 53.088,20.192 C52.656,20.192 52.288,20.544 52.288,20.992 C52.288,21.44 52.656,21.808 53.088,21.808 Z M53.696,30.832 L53.696,23.104 L52.496,23.104 L52.496,30.832 L53.696,30.832 Z" id="Shape"></path>
            <path d="M62.512,30.832 L62.512,25.408 C62.512,23.728 61.664,22.912 60.048,22.912 C58.896,22.912 57.84,23.584 57.296,24.224 L57.296,23.104 L56.096,23.104 L56.096,30.832 L57.296,30.832 L57.296,25.184 C57.744,24.56 58.64,23.984 59.584,23.984 C60.624,23.984 61.312,24.416 61.312,25.776 L61.312,30.832 L62.512,30.832 Z" id="Path"></path>
            <path d="M64.896,32.816 C65.808,33.712 66.704,33.968 68.016,33.968 C69.904,33.968 71.696,33.168 71.696,30.608 L71.696,23.104 L70.496,23.104 L70.496,24.272 C69.872,23.424 68.944,22.912 67.904,22.912 C65.872,22.912 64.464,24.448 64.464,26.928 C64.464,29.424 65.888,30.928 67.904,30.928 C68.992,30.928 69.936,30.336 70.496,29.552 L70.496,30.656 C70.496,32.352 69.296,32.976 68.016,32.976 C66.912,32.976 66.144,32.688 65.504,31.92 L64.896,32.816 Z M70.496,28.608 C70.08,29.28 69.152,29.872 68.192,29.872 C66.64,29.872 65.712,28.624 65.712,26.928 C65.712,25.216 66.64,23.984 68.192,23.984 C69.152,23.984 70.08,24.56 70.496,25.232 L70.496,28.608 Z" id="Shape"></path>
            <path d="M85.216,30.832 L85.216,29.648 L79.984,29.648 C82.96,27.296 85.168,25.312 85.168,23.136 C85.168,21.008 83.36,20 81.584,20 C80.08,20 78.688,20.608 77.872,21.68 L78.688,22.528 C79.312,21.728 80.304,21.184 81.584,21.184 C82.688,21.184 83.808,21.776 83.808,23.136 C83.808,24.976 81.728,26.752 77.888,29.776 L77.888,30.832 L85.216,30.832 Z" id="Path"></path>
            <path d="M87.488,29.312 C88.288,30.368 89.44,31.024 91.248,31.024 C93.392,31.024 95.04,29.68 95.04,27.504 C95.04,25.312 93.424,24.096 91.648,24.096 C90.576,24.096 89.664,24.544 89.152,25.056 L89.152,21.344 L94.352,21.344 L94.352,20.16 L87.824,20.16 L87.824,25.92 L88.8,26.256 C89.52,25.552 90.32,25.248 91.264,25.248 C92.704,25.248 93.712,26.144 93.712,27.552 C93.712,28.848 92.704,29.84 91.248,29.84 C89.936,29.84 89.008,29.328 88.304,28.432 L87.488,29.312 Z" id="Path"></path>
            <path d="M101.792,21.808 C102.24,21.808 102.608,21.44 102.608,20.992 C102.608,20.544 102.24,20.192 101.792,20.192 C101.36,20.192 100.992,20.544 100.992,20.992 C100.992,21.44 101.36,21.808 101.792,21.808 Z M102.4,30.832 L102.4,23.104 L101.2,23.104 L101.2,30.832 L102.4,30.832 Z" id="Shape"></path>
            <path d="M115.328,30.832 L115.328,25.248 C115.328,23.696 114.576,22.912 113.168,22.912 C112.048,22.912 111.008,23.648 110.576,24.352 C110.352,23.552 109.68,22.912 108.496,22.912 C107.36,22.912 106.32,23.728 106,24.224 L106,23.104 L104.8,23.104 L104.8,30.832 L106,30.832 L106,25.184 C106.416,24.56 107.248,23.984 108.032,23.984 C109.04,23.984 109.456,24.608 109.456,25.584 L109.456,30.832 L110.656,30.832 L110.656,25.168 C111.056,24.56 111.904,23.984 112.704,23.984 C113.696,23.984 114.128,24.608 114.128,25.584 L114.128,30.832 L115.328,30.832 Z" id="Path"></path>
            <path d="M123.76,30.832 L123.76,25.52 C123.76,23.648 122.4,22.912 120.768,22.912 C119.504,22.912 118.512,23.328 117.68,24.192 L118.24,25.024 C118.928,24.288 119.68,23.952 120.608,23.952 C121.728,23.952 122.56,24.544 122.56,25.584 L122.56,26.976 C121.936,26.256 121.056,25.92 120,25.92 C118.688,25.92 117.296,26.736 117.296,28.464 C117.296,30.144 118.688,31.024 120,31.024 C121.04,31.024 121.92,30.656 122.56,29.952 L122.56,30.832 L123.76,30.832 Z M122.56,29.2 C122.096,29.84 121.28,30.16 120.432,30.16 C119.312,30.16 118.528,29.456 118.528,28.48 C118.528,27.488 119.312,26.784 120.432,26.784 C121.28,26.784 122.096,27.104 122.56,27.744 L122.56,29.2 Z" id="Shape"></path>
            <path d="M126.144,32.816 C127.056,33.712 127.952,33.968 129.264,33.968 C131.152,33.968 132.944,33.168 132.944,30.608 L132.944,23.104 L131.744,23.104 L131.744,24.272 C131.12,23.424 130.192,22.912 129.152,22.912 C127.12,22.912 125.712,24.448 125.712,26.928 C125.712,29.424 127.136,30.928 129.152,30.928 C130.24,30.928 131.184,30.336 131.744,29.552 L131.744,30.656 C131.744,32.352 130.544,32.976 129.264,32.976 C128.16,32.976 127.392,32.688 126.752,31.92 L126.144,32.816 Z M131.744,28.608 C131.328,29.28 130.4,29.872 129.44,29.872 C127.888,29.872 126.96,28.624 126.96,26.928 C126.96,25.216 127.888,23.984 129.44,23.984 C130.4,23.984 131.328,24.56 131.744,25.232 L131.744,28.608 Z" id="Shape"></path>
            <path d="M134.896,26.96 C134.896,29.376 136.544,31.024 138.832,31.024 C140.096,31.024 141.136,30.608 141.904,29.84 L141.328,29.056 C140.72,29.68 139.824,30.032 138.944,30.032 C137.28,30.032 136.256,28.816 136.16,27.36 L142.416,27.36 L142.416,27.056 C142.416,24.736 141.04,22.912 138.704,22.912 C136.496,22.912 134.896,24.72 134.896,26.96 Z M138.688,23.904 C140.448,23.904 141.216,25.328 141.232,26.48 L136.16,26.48 C136.224,25.296 137.04,23.904 138.688,23.904 Z" id="Shape"></path>
            <path d="M143.68,29.808 C144.464,30.64 145.536,31.024 146.8,31.024 C148.8,31.024 149.84,29.984 149.84,28.688 C149.84,26.976 148.288,26.592 146.944,26.288 C145.936,26.048 145.056,25.808 145.056,25.056 C145.056,24.368 145.712,23.888 146.768,23.888 C147.76,23.888 148.608,24.304 149.072,24.864 L149.632,24.032 C149.008,23.408 148.08,22.912 146.768,22.912 C144.928,22.912 143.888,23.936 143.888,25.136 C143.888,26.736 145.376,27.088 146.688,27.392 C147.728,27.648 148.672,27.92 148.672,28.768 C148.672,29.52 148.032,30.048 146.848,30.048 C145.792,30.048 144.816,29.536 144.304,28.944 L143.68,29.808 Z" id="Path"></path>
            <path d="M152.096,32.864 C152.832,32.336 153.408,31.424 153.408,30.448 C153.408,29.68 152.928,29.232 152.4,29.232 C151.92,29.232 151.552,29.632 151.552,30.096 C151.552,30.576 151.872,30.912 152.32,30.912 C152.4,30.912 152.512,30.896 152.544,30.88 C152.48,31.408 152.016,32.032 151.504,32.368 L152.096,32.864 Z" id="Path"></path>
            <path d="M165.632,30.832 L165.632,25.52 C165.632,23.648 164.272,22.912 162.64,22.912 C161.376,22.912 160.384,23.328 159.552,24.192 L160.112,25.024 C160.8,24.288 161.552,23.952 162.48,23.952 C163.6,23.952 164.432,24.544 164.432,25.584 L164.432,26.976 C163.808,26.256 162.928,25.92 161.872,25.92 C160.56,25.92 159.168,26.736 159.168,28.464 C159.168,30.144 160.56,31.024 161.872,31.024 C162.912,31.024 163.792,30.656 164.432,29.952 L164.432,30.832 L165.632,30.832 Z M164.432,29.2 C163.968,29.84 163.152,30.16 162.304,30.16 C161.184,30.16 160.4,29.456 160.4,28.48 C160.4,27.488 161.184,26.784 162.304,26.784 C163.152,26.784 163.968,27.104 164.432,27.744 L164.432,29.2 Z" id="Shape"></path>
            <polygon id="Path" points="169.232 30.832 169.232 20.16 168.032 20.16 168.032 30.832"></polygon>
            <polygon id="Path" points="172.832 30.832 172.832 20.16 171.632 20.16 171.632 30.832"></polygon>
            <path d="M178.624,29.264 C179.28,30.224 180.608,31.024 182.416,31.024 C184.768,31.024 186.192,29.728 186.192,27.952 C186.192,26.24 184.704,25.408 183.728,25.328 C184.736,25.152 186.032,24.384 186.032,22.848 C186.032,21.04 184.464,20 182.416,20 C180.768,20 179.536,20.72 178.768,21.648 L179.504,22.48 C180.288,21.632 181.152,21.184 182.32,21.184 C183.616,21.184 184.704,21.824 184.704,23.008 C184.704,24.24 183.568,24.768 182.224,24.768 C181.792,24.768 181.296,24.768 181.12,24.752 L181.12,25.968 C181.28,25.952 181.776,25.952 182.224,25.952 C183.792,25.952 184.88,26.512 184.88,27.84 C184.88,29.072 183.936,29.84 182.384,29.84 C181.12,29.84 180.032,29.264 179.408,28.432 L178.624,29.264 Z" id="Path"></path>
            <polygon id="Path" points="195.52 27.488 195.52 26.432 191.68 26.432 191.68 27.488"></polygon>
            <path d="M201.472,29.728 C202.144,30.496 203.072,31.008 204.432,31.008 C207.424,31.008 208.768,28.384 208.768,25.504 C208.768,22.592 207.632,19.984 204.64,19.984 C202.32,19.984 200.912,21.632 200.912,23.472 C200.912,25.744 202.496,26.88 204.416,26.88 C205.776,26.88 206.96,25.952 207.424,25.216 C207.44,25.36 207.44,25.504 207.44,25.648 C207.44,27.664 206.592,29.824 204.432,29.824 C203.328,29.824 202.688,29.376 202.144,28.736 L201.472,29.728 Z M207.376,24.144 C206.816,25.088 205.776,25.728 204.72,25.728 C203.344,25.728 202.256,24.992 202.256,23.424 C202.256,22.416 203.072,21.168 204.704,21.168 C206.56,21.168 207.264,22.816 207.376,24.144 Z" id="Shape"></path>
            <polygon id="Path" points="225.408 30.832 225.408 20.16 223.504 20.16 220.176 28.288 216.864 20.16 214.96 20.16 214.96 30.832 216.288 30.832 216.288 21.952 219.904 30.832 220.448 30.832 224.08 21.952 224.08 30.832"></polygon>
            <path d="M232.768,30.832 C234.72,30.832 235.856,29.664 235.856,27.952 C235.856,26.672 234.912,25.504 233.776,25.328 C234.752,25.12 235.648,24.224 235.648,22.88 C235.648,21.28 234.512,20.16 232.656,20.16 L227.904,20.16 L227.904,30.832 L232.768,30.832 Z M229.232,21.344 L232.432,21.344 C233.632,21.344 234.272,22.112 234.272,23.072 C234.272,24.048 233.632,24.784 232.432,24.784 L229.232,24.784 L229.232,21.344 Z M229.232,25.968 L232.496,25.968 C233.808,25.968 234.48,26.832 234.48,27.808 C234.48,28.944 233.744,29.648 232.496,29.648 L229.232,29.648 L229.232,25.968 Z" id="Shape"></path>
            <path d="M2.256,50.832 L2.256,49.68 C2.832,50.464 3.776,51.024 4.864,51.024 C6.88,51.024 8.304,49.488 8.304,46.976 C8.304,44.512 6.88,42.912 4.864,42.912 C3.808,42.912 2.88,43.424 2.256,44.272 L2.256,40.16 L1.056,40.16 L1.056,50.832 L2.256,50.832 Z M2.256,45.232 C2.672,44.56 3.616,43.984 4.56,43.984 C6.128,43.984 7.056,45.264 7.056,46.976 C7.056,48.688 6.128,49.952 4.56,49.952 C3.616,49.952 2.672,49.408 2.256,48.736 L2.256,45.232 Z" id="Shape"></path>
            <path d="M9.808,46.96 C9.808,49.376 11.456,51.024 13.744,51.024 C15.008,51.024 16.048,50.608 16.816,49.84 L16.24,49.056 C15.632,49.68 14.736,50.032 13.856,50.032 C12.192,50.032 11.168,48.816 11.072,47.36 L17.328,47.36 L17.328,47.056 C17.328,44.736 15.952,42.912 13.616,42.912 C11.408,42.912 9.808,44.72 9.808,46.96 Z M13.6,43.904 C15.36,43.904 16.128,45.328 16.144,46.48 L11.072,46.48 C11.136,45.296 11.952,43.904 13.6,43.904 Z" id="Shape"></path>
            <path d="M19.856,41.808 C20.304,41.808 20.672,41.44 20.672,40.992 C20.672,40.544 20.304,40.192 19.856,40.192 C19.424,40.192 19.056,40.544 19.056,40.992 C19.056,41.44 19.424,41.808 19.856,41.808 Z M20.464,50.832 L20.464,43.104 L19.264,43.104 L19.264,50.832 L20.464,50.832 Z" id="Shape"></path>
            <path d="M29.28,50.832 L29.28,45.408 C29.28,43.728 28.432,42.912 26.816,42.912 C25.664,42.912 24.608,43.584 24.064,44.224 L24.064,43.104 L22.864,43.104 L22.864,50.832 L24.064,50.832 L24.064,45.184 C24.512,44.56 25.408,43.984 26.352,43.984 C27.392,43.984 28.08,44.416 28.08,45.776 L28.08,50.832 L29.28,50.832 Z" id="Path"></path>
            <path d="M31.664,52.816 C32.576,53.712 33.472,53.968 34.784,53.968 C36.672,53.968 38.464,53.168 38.464,50.608 L38.464,43.104 L37.264,43.104 L37.264,44.272 C36.64,43.424 35.712,42.912 34.672,42.912 C32.64,42.912 31.232,44.448 31.232,46.928 C31.232,49.424 32.656,50.928 34.672,50.928 C35.76,50.928 36.704,50.336 37.264,49.552 L37.264,50.656 C37.264,52.352 36.064,52.976 34.784,52.976 C33.68,52.976 32.912,52.688 32.272,51.92 L31.664,52.816 Z M37.264,48.608 C36.848,49.28 35.92,49.872 34.96,49.872 C33.408,49.872 32.48,48.624 32.48,46.928 C32.48,45.216 33.408,43.984 34.96,43.984 C35.92,43.984 36.848,44.56 37.264,45.232 L37.264,48.608 Z" id="Shape"></path>
            <path d="M46.192,50.832 L46.192,45.36 C46.544,44.736 47.552,44.128 48.288,44.128 C48.48,44.128 48.624,44.144 48.768,44.176 L48.768,42.944 C47.712,42.944 46.816,43.536 46.192,44.352 L46.192,43.104 L44.992,43.104 L44.992,50.832 L46.192,50.832 Z" id="Path"></path>
            <path d="M49.824,46.96 C49.824,49.376 51.472,51.024 53.76,51.024 C55.024,51.024 56.064,50.608 56.832,49.84 L56.256,49.056 C55.648,49.68 54.752,50.032 53.872,50.032 C52.208,50.032 51.184,48.816 51.088,47.36 L57.344,47.36 L57.344,47.056 C57.344,44.736 55.968,42.912 53.632,42.912 C51.424,42.912 49.824,44.72 49.824,46.96 Z M53.616,43.904 C55.376,43.904 56.144,45.328 56.16,46.48 L51.088,46.48 C51.152,45.296 51.968,43.904 53.616,43.904 Z" id="Shape"></path>
            <path d="M58.608,49.808 C59.392,50.64 60.464,51.024 61.728,51.024 C63.728,51.024 64.768,49.984 64.768,48.688 C64.768,46.976 63.216,46.592 61.872,46.288 C60.864,46.048 59.984,45.808 59.984,45.056 C59.984,44.368 60.64,43.888 61.696,43.888 C62.688,43.888 63.536,44.304 64,44.864 L64.56,44.032 C63.936,43.408 63.008,42.912 61.696,42.912 C59.856,42.912 58.816,43.936 58.816,45.136 C58.816,46.736 60.304,47.088 61.616,47.392 C62.656,47.648 63.6,47.92 63.6,48.768 C63.6,49.52 62.96,50.048 61.776,50.048 C60.72,50.048 59.744,49.536 59.232,48.944 L58.608,49.808 Z" id="Path"></path>
            <path d="M67.312,41.808 C67.76,41.808 68.128,41.44 68.128,40.992 C68.128,40.544 67.76,40.192 67.312,40.192 C66.88,40.192 66.512,40.544 66.512,40.992 C66.512,41.44 66.88,41.808 67.312,41.808 Z M67.92,50.832 L67.92,43.104 L66.72,43.104 L66.72,50.832 L67.92,50.832 Z" id="Shape"></path>
            <polygon id="Path" points="75.84 50.832 75.84 49.792 71.488 49.792 75.776 44.016 75.776 43.104 69.952 43.104 69.952 44.16 74.208 44.16 69.952 49.904 69.952 50.832"></polygon>
            <path d="M77.424,46.96 C77.424,49.376 79.072,51.024 81.36,51.024 C82.624,51.024 83.664,50.608 84.432,49.84 L83.856,49.056 C83.248,49.68 82.352,50.032 81.472,50.032 C79.808,50.032 78.784,48.816 78.688,47.36 L84.944,47.36 L84.944,47.056 C84.944,44.736 83.568,42.912 81.232,42.912 C79.024,42.912 77.424,44.72 77.424,46.96 Z M81.216,43.904 C82.976,43.904 83.744,45.328 83.76,46.48 L78.688,46.48 C78.752,45.296 79.568,43.904 81.216,43.904 Z" id="Shape"></path>
            <path d="M93.68,50.832 L93.68,40.16 L92.48,40.16 L92.48,44.272 C91.856,43.424 90.912,42.912 89.872,42.912 C87.84,42.912 86.432,44.512 86.432,46.976 C86.432,49.488 87.856,51.024 89.872,51.024 C90.96,51.024 91.904,50.464 92.48,49.68 L92.48,50.832 L93.68,50.832 Z M92.48,48.736 C92.048,49.408 91.12,49.952 90.16,49.952 C88.608,49.952 87.68,48.688 87.68,46.976 C87.68,45.264 88.608,43.984 90.16,43.984 C91.12,43.984 92.048,44.56 92.48,45.232 L92.48,48.736 Z" id="Shape"></path>
            <path d="M102.16,51.024 C102.864,51.024 103.296,50.816 103.6,50.528 L103.248,49.632 C103.088,49.808 102.768,49.952 102.432,49.952 C101.904,49.952 101.648,49.536 101.648,48.96 L101.648,44.16 L103.216,44.16 L103.216,43.104 L101.648,43.104 L101.648,40.992 L100.448,40.992 L100.448,43.104 L99.168,43.104 L99.168,44.16 L100.448,44.16 L100.448,49.216 C100.448,50.368 101.024,51.024 102.16,51.024 Z" id="Path"></path>
            <path d="M108.288,51.024 C110.64,51.024 112.112,49.2 112.112,46.96 C112.112,44.72 110.64,42.912 108.288,42.912 C105.936,42.912 104.464,44.72 104.464,46.96 C104.464,49.2 105.936,51.024 108.288,51.024 Z M108.288,49.952 C106.64,49.952 105.712,48.544 105.712,46.96 C105.712,45.392 106.64,43.984 108.288,43.984 C109.936,43.984 110.848,45.392 110.848,46.96 C110.848,48.544 109.936,49.952 108.288,49.952 Z" id="Shape"></path>
            <path d="M117.824,48.128 C117.824,49.952 119.536,51.024 121.648,51.024 C123.744,51.024 125.472,49.936 125.472,48.128 C125.472,46.704 124.256,45.728 122.928,45.328 C124.16,44.976 125.312,44.176 125.312,42.768 C125.312,40.848 123.408,40 121.648,40 C119.872,40 118,40.848 118,42.768 C118,44.176 119.136,44.976 120.368,45.328 C119.04,45.728 117.824,46.704 117.824,48.128 Z M123.968,42.944 C123.968,44.24 122.304,44.672 121.648,44.784 C121.008,44.672 119.328,44.24 119.328,42.944 C119.328,41.84 120.352,41.184 121.648,41.184 C122.928,41.184 123.968,41.84 123.968,42.944 Z M124.128,47.984 C124.128,49.136 122.96,49.84 121.648,49.84 C120.32,49.84 119.152,49.136 119.152,47.984 C119.152,46.592 120.992,46 121.648,45.92 C122.304,46 124.128,46.592 124.128,47.984 Z" id="Shape"></path>
            <path d="M127.104,45.504 C127.104,48.096 128.256,51.024 131.184,51.024 C134.096,51.024 135.264,48.096 135.264,45.504 C135.264,42.896 134.096,40 131.184,40 C128.256,40 127.104,42.896 127.104,45.504 Z M133.904,45.504 C133.904,47.632 133.216,49.84 131.184,49.84 C129.152,49.84 128.464,47.632 128.464,45.504 C128.464,43.376 129.152,41.184 131.184,41.184 C133.216,41.184 133.904,43.376 133.904,45.504 Z" id="Shape"></path>
            <path d="M136.896,45.504 C136.896,48.096 138.048,51.024 140.976,51.024 C143.888,51.024 145.056,48.096 145.056,45.504 C145.056,42.896 143.888,40 140.976,40 C138.048,40 136.896,42.896 136.896,45.504 Z M143.696,45.504 C143.696,47.632 143.008,49.84 140.976,49.84 C138.944,49.84 138.256,47.632 138.256,45.504 C138.256,43.376 138.944,41.184 140.976,41.184 C143.008,41.184 143.696,43.376 143.696,45.504 Z" id="Shape"></path>
            <path d="M148.272,49.664 C148.896,50.528 149.824,51.024 150.88,51.024 C152.912,51.024 154.32,49.456 154.32,46.96 C154.32,44.448 152.912,42.912 150.88,42.912 C149.792,42.912 148.832,43.472 148.272,44.256 L148.272,43.104 L147.072,43.104 L147.072,53.776 L148.272,53.776 L148.272,49.664 Z M153.056,46.96 C153.056,48.672 152.128,49.952 150.576,49.952 C149.632,49.952 148.688,49.376 148.272,48.704 L148.272,45.216 C148.688,44.544 149.632,43.984 150.576,43.984 C152.128,43.984 153.056,45.248 153.056,46.96 Z" id="Shape"></path>
            <polygon id="Path" points="162.16 50.832 159.184 46.864 161.984 43.104 160.592 43.104 158.448 46.048 156.304 43.104 154.912 43.104 157.712 46.864 154.752 50.832 156.128 50.832 158.448 47.664 160.768 50.832"></polygon>
            <polygon id="Path" points="175.552 50.832 178.016 43.104 176.768 43.104 174.88 49.264 172.848 43.104 171.824 43.104 169.792 49.264 167.904 43.104 166.656 43.104 169.12 50.832 170.32 50.832 172.336 44.624 174.352 50.832"></polygon>
            <path d="M180,41.808 C180.448,41.808 180.816,41.44 180.816,40.992 C180.816,40.544 180.448,40.192 180,40.192 C179.568,40.192 179.2,40.544 179.2,40.992 C179.2,41.44 179.568,41.808 180,41.808 Z M180.608,50.832 L180.608,43.104 L179.408,43.104 L179.408,50.832 L180.608,50.832 Z" id="Shape"></path>
            <path d="M189.808,50.832 L189.808,40.16 L188.608,40.16 L188.608,44.272 C187.984,43.424 187.04,42.912 186,42.912 C183.968,42.912 182.56,44.512 182.56,46.976 C182.56,49.488 183.984,51.024 186,51.024 C187.088,51.024 188.032,50.464 188.608,49.68 L188.608,50.832 L189.808,50.832 Z M188.608,48.736 C188.176,49.408 187.248,49.952 186.288,49.952 C184.736,49.952 183.808,48.688 183.808,46.976 C183.808,45.264 184.736,43.984 186.288,43.984 C187.248,43.984 188.176,44.56 188.608,45.232 L188.608,48.736 Z" id="Shape"></path>
            <path d="M191.76,46.96 C191.76,49.376 193.408,51.024 195.696,51.024 C196.96,51.024 198,50.608 198.768,49.84 L198.192,49.056 C197.584,49.68 196.688,50.032 195.808,50.032 C194.144,50.032 193.12,48.816 193.024,47.36 L199.28,47.36 L199.28,47.056 C199.28,44.736 197.904,42.912 195.568,42.912 C193.36,42.912 191.76,44.72 191.76,46.96 Z M195.552,43.904 C197.312,43.904 198.08,45.328 198.096,46.48 L193.024,46.48 C193.088,45.296 193.904,43.904 195.552,43.904 Z" id="Shape"></path>
            <path d="M200.864,50.112 C200.864,50.592 201.264,50.992 201.744,50.992 C202.224,50.992 202.624,50.592 202.624,50.112 C202.624,49.632 202.224,49.232 201.744,49.232 C201.264,49.232 200.864,49.632 200.864,50.112 Z" id="Path"></path>
            <path d="M10.24,90.832 L5.936,80.16 L4.288,80.16 L0,90.832 L1.472,90.832 L2.416,88.464 L7.824,88.464 L8.768,90.832 L10.24,90.832 Z M7.424,87.28 L2.8,87.28 L5.12,81.344 L7.424,87.28 Z" id="Shape"></path>
            <polygon id="Path" points="12.784 90.832 12.784 80.16 11.584 80.16 11.584 90.832"></polygon>
            <polygon id="Path" points="16.384 90.832 16.384 80.16 15.184 80.16 15.184 90.832"></polygon>
            <path d="M24.864,91.024 C25.568,91.024 26,90.816 26.304,90.528 L25.952,89.632 C25.792,89.808 25.472,89.952 25.136,89.952 C24.608,89.952 24.352,89.536 24.352,88.96 L24.352,84.16 L25.92,84.16 L25.92,83.104 L24.352,83.104 L24.352,80.992 L23.152,80.992 L23.152,83.104 L21.872,83.104 L21.872,84.16 L23.152,84.16 L23.152,89.216 C23.152,90.368 23.728,91.024 24.864,91.024 Z" id="Path"></path>
            <path d="M27.168,86.96 C27.168,89.376 28.816,91.024 31.104,91.024 C32.368,91.024 33.408,90.608 34.176,89.84 L33.6,89.056 C32.992,89.68 32.096,90.032 31.216,90.032 C29.552,90.032 28.528,88.816 28.432,87.36 L34.688,87.36 L34.688,87.056 C34.688,84.736 33.312,82.912 30.976,82.912 C28.768,82.912 27.168,84.72 27.168,86.96 Z M30.96,83.904 C32.72,83.904 33.488,85.328 33.504,86.48 L28.432,86.48 C28.496,85.296 29.312,83.904 30.96,83.904 Z" id="Shape"></path>
            <path d="M35.952,89.808 C36.736,90.64 37.808,91.024 39.072,91.024 C41.072,91.024 42.112,89.984 42.112,88.688 C42.112,86.976 40.56,86.592 39.216,86.288 C38.208,86.048 37.328,85.808 37.328,85.056 C37.328,84.368 37.984,83.888 39.04,83.888 C40.032,83.888 40.88,84.304 41.344,84.864 L41.904,84.032 C41.28,83.408 40.352,82.912 39.04,82.912 C37.2,82.912 36.16,83.936 36.16,85.136 C36.16,86.736 37.648,87.088 38.96,87.392 C40,87.648 40.944,87.92 40.944,88.768 C40.944,89.52 40.304,90.048 39.12,90.048 C38.064,90.048 37.088,89.536 36.576,88.944 L35.952,89.808 Z" id="Path"></path>
            <path d="M46.016,91.024 C46.72,91.024 47.152,90.816 47.456,90.528 L47.104,89.632 C46.944,89.808 46.624,89.952 46.288,89.952 C45.76,89.952 45.504,89.536 45.504,88.96 L45.504,84.16 L47.072,84.16 L47.072,83.104 L45.504,83.104 L45.504,80.992 L44.304,80.992 L44.304,83.104 L43.024,83.104 L43.024,84.16 L44.304,84.16 L44.304,89.216 C44.304,90.368 44.88,91.024 46.016,91.024 Z" id="Path"></path>
            <path d="M48.096,89.808 C48.88,90.64 49.952,91.024 51.216,91.024 C53.216,91.024 54.256,89.984 54.256,88.688 C54.256,86.976 52.704,86.592 51.36,86.288 C50.352,86.048 49.472,85.808 49.472,85.056 C49.472,84.368 50.128,83.888 51.184,83.888 C52.176,83.888 53.024,84.304 53.488,84.864 L54.048,84.032 C53.424,83.408 52.496,82.912 51.184,82.912 C49.344,82.912 48.304,83.936 48.304,85.136 C48.304,86.736 49.792,87.088 51.104,87.392 C52.144,87.648 53.088,87.92 53.088,88.768 C53.088,89.52 52.448,90.048 51.264,90.048 C50.208,90.048 49.232,89.536 48.72,88.944 L48.096,89.808 Z" id="Path"></path>
            <polygon id="Path" points="68.224 90.832 70.688 83.104 69.44 83.104 67.552 89.264 65.52 83.104 64.496 83.104 62.464 89.264 60.576 83.104 59.328 83.104 61.792 90.832 62.992 90.832 65.008 84.624 67.024 90.832"></polygon>
            <path d="M71.632,86.96 C71.632,89.376 73.28,91.024 75.568,91.024 C76.832,91.024 77.872,90.608 78.64,89.84 L78.064,89.056 C77.456,89.68 76.56,90.032 75.68,90.032 C74.016,90.032 72.992,88.816 72.896,87.36 L79.152,87.36 L79.152,87.056 C79.152,84.736 77.776,82.912 75.44,82.912 C73.232,82.912 71.632,84.72 71.632,86.96 Z M75.424,83.904 C77.184,83.904 77.952,85.328 77.968,86.48 L72.896,86.48 C72.96,85.296 73.776,83.904 75.424,83.904 Z" id="Shape"></path>
            <path d="M82.288,90.832 L82.288,85.36 C82.64,84.736 83.648,84.128 84.384,84.128 C84.576,84.128 84.72,84.144 84.864,84.176 L84.864,82.944 C83.808,82.944 82.912,83.536 82.288,84.352 L82.288,83.104 L81.088,83.104 L81.088,90.832 L82.288,90.832 Z" id="Path"></path>
            <path d="M85.92,86.96 C85.92,89.376 87.568,91.024 89.856,91.024 C91.12,91.024 92.16,90.608 92.928,89.84 L92.352,89.056 C91.744,89.68 90.848,90.032 89.968,90.032 C88.304,90.032 87.28,88.816 87.184,87.36 L93.44,87.36 L93.44,87.056 C93.44,84.736 92.064,82.912 89.728,82.912 C87.52,82.912 85.92,84.72 85.92,86.96 Z M89.712,83.904 C91.472,83.904 92.24,85.328 92.256,86.48 L87.184,86.48 C87.248,85.296 88.064,83.904 89.712,83.904 Z" id="Shape"></path>
            <path d="M100.704,90.832 L100.704,85.36 C101.056,84.736 102.064,84.128 102.8,84.128 C102.992,84.128 103.136,84.144 103.28,84.176 L103.28,82.944 C102.224,82.944 101.328,83.536 100.704,84.352 L100.704,83.104 L99.504,83.104 L99.504,90.832 L100.704,90.832 Z" id="Path"></path>
            <path d="M111.2,90.832 L111.2,83.104 L110,83.104 L110,88.784 C109.552,89.408 108.656,89.952 107.712,89.952 C106.672,89.952 105.984,89.552 105.984,88.192 L105.984,83.104 L104.784,83.104 L104.784,88.56 C104.784,90.24 105.632,91.024 107.248,91.024 C108.4,91.024 109.408,90.416 110,89.744 L110,90.832 L111.2,90.832 Z" id="Path"></path>
            <path d="M120.016,90.832 L120.016,85.408 C120.016,83.728 119.168,82.912 117.552,82.912 C116.4,82.912 115.344,83.584 114.8,84.224 L114.8,83.104 L113.6,83.104 L113.6,90.832 L114.8,90.832 L114.8,85.184 C115.248,84.56 116.144,83.984 117.088,83.984 C118.128,83.984 118.816,84.416 118.816,85.776 L118.816,90.832 L120.016,90.832 Z" id="Path"></path>
            <path d="M137.072,90.832 L137.072,85.248 C137.072,83.696 136.32,82.912 134.912,82.912 C133.792,82.912 132.752,83.648 132.32,84.352 C132.096,83.552 131.424,82.912 130.24,82.912 C129.104,82.912 128.064,83.728 127.744,84.224 L127.744,83.104 L126.544,83.104 L126.544,90.832 L127.744,90.832 L127.744,85.184 C128.16,84.56 128.992,83.984 129.776,83.984 C130.784,83.984 131.2,84.608 131.2,85.584 L131.2,90.832 L132.4,90.832 L132.4,85.168 C132.8,84.56 133.648,83.984 134.448,83.984 C135.44,83.984 135.872,84.608 135.872,85.584 L135.872,90.832 L137.072,90.832 Z" id="Path"></path>
            <path d="M145.888,90.832 L145.888,83.104 L144.688,83.104 L144.688,88.784 C144.24,89.408 143.344,89.952 142.4,89.952 C141.36,89.952 140.672,89.552 140.672,88.192 L140.672,83.104 L139.472,83.104 L139.472,88.56 C139.472,90.24 140.32,91.024 141.936,91.024 C143.088,91.024 144.096,90.416 144.688,89.744 L144.688,90.832 L145.888,90.832 Z" id="Path"></path>
            <polygon id="Path" points="149.488 90.832 149.488 80.16 148.288 80.16 148.288 90.832"></polygon>
            <path d="M153.84,91.024 C154.544,91.024 154.976,90.816 155.28,90.528 L154.928,89.632 C154.768,89.808 154.448,89.952 154.112,89.952 C153.584,89.952 153.328,89.536 153.328,88.96 L153.328,84.16 L154.896,84.16 L154.896,83.104 L153.328,83.104 L153.328,80.992 L152.128,80.992 L152.128,83.104 L150.848,83.104 L150.848,84.16 L152.128,84.16 L152.128,89.216 C152.128,90.368 152.704,91.024 153.84,91.024 Z" id="Path"></path>
            <path d="M157.184,81.808 C157.632,81.808 158,81.44 158,80.992 C158,80.544 157.632,80.192 157.184,80.192 C156.752,80.192 156.384,80.544 156.384,80.992 C156.384,81.44 156.752,81.808 157.184,81.808 Z M157.792,90.832 L157.792,83.104 L156.592,83.104 L156.592,90.832 L157.792,90.832 Z" id="Shape"></path>
            <path d="M161.392,89.664 C162.016,90.528 162.944,91.024 164,91.024 C166.032,91.024 167.44,89.456 167.44,86.96 C167.44,84.448 166.032,82.912 164,82.912 C162.912,82.912 161.952,83.472 161.392,84.256 L161.392,83.104 L160.192,83.104 L160.192,93.776 L161.392,93.776 L161.392,89.664 Z M166.176,86.96 C166.176,88.672 165.248,89.952 163.696,89.952 C162.752,89.952 161.808,89.376 161.392,88.704 L161.392,85.216 C161.808,84.544 162.752,83.984 163.696,83.984 C165.248,83.984 166.176,85.248 166.176,86.96 Z" id="Shape"></path>
            <polygon id="Path" points="170.576 90.832 170.576 80.16 169.376 80.16 169.376 90.832"></polygon>
            <path d="M172.528,86.96 C172.528,89.376 174.176,91.024 176.464,91.024 C177.728,91.024 178.768,90.608 179.536,89.84 L178.96,89.056 C178.352,89.68 177.456,90.032 176.576,90.032 C174.912,90.032 173.888,88.816 173.792,87.36 L180.048,87.36 L180.048,87.056 C180.048,84.736 178.672,82.912 176.336,82.912 C174.128,82.912 172.528,84.72 172.528,86.96 Z M176.32,83.904 C178.08,83.904 178.848,85.328 178.864,86.48 L173.792,86.48 C173.856,85.296 174.672,83.904 176.32,83.904 Z" id="Shape"></path>
            <path d="M188.064,91.024 C188.768,91.024 189.2,90.816 189.504,90.528 L189.152,89.632 C188.992,89.808 188.672,89.952 188.336,89.952 C187.808,89.952 187.552,89.536 187.552,88.96 L187.552,84.16 L189.12,84.16 L189.12,83.104 L187.552,83.104 L187.552,80.992 L186.352,80.992 L186.352,83.104 L185.072,83.104 L185.072,84.16 L186.352,84.16 L186.352,89.216 C186.352,90.368 186.928,91.024 188.064,91.024 Z" id="Path"></path>
            <path d="M191.408,81.808 C191.856,81.808 192.224,81.44 192.224,80.992 C192.224,80.544 191.856,80.192 191.408,80.192 C190.976,80.192 190.608,80.544 190.608,80.992 C190.608,81.44 190.976,81.808 191.408,81.808 Z M192.016,90.832 L192.016,83.104 L190.816,83.104 L190.816,90.832 L192.016,90.832 Z" id="Shape"></path>
            <path d="M204.944,90.832 L204.944,85.248 C204.944,83.696 204.192,82.912 202.784,82.912 C201.664,82.912 200.624,83.648 200.192,84.352 C199.968,83.552 199.296,82.912 198.112,82.912 C196.976,82.912 195.936,83.728 195.616,84.224 L195.616,83.104 L194.416,83.104 L194.416,90.832 L195.616,90.832 L195.616,85.184 C196.032,84.56 196.864,83.984 197.648,83.984 C198.656,83.984 199.072,84.608 199.072,85.584 L199.072,90.832 L200.272,90.832 L200.272,85.168 C200.672,84.56 201.52,83.984 202.32,83.984 C203.312,83.984 203.744,84.608 203.744,85.584 L203.744,90.832 L204.944,90.832 Z" id="Path"></path>
            <path d="M206.896,86.96 C206.896,89.376 208.544,91.024 210.832,91.024 C212.096,91.024 213.136,90.608 213.904,89.84 L213.328,89.056 C212.72,89.68 211.824,90.032 210.944,90.032 C209.28,90.032 208.256,88.816 208.16,87.36 L214.416,87.36 L214.416,87.056 C214.416,84.736 213.04,82.912 210.704,82.912 C208.496,82.912 206.896,84.72 206.896,86.96 Z M210.688,83.904 C212.448,83.904 213.216,85.328 213.232,86.48 L208.16,86.48 C208.224,85.296 209.04,83.904 210.688,83.904 Z" id="Shape"></path>
            <path d="M215.68,89.808 C216.464,90.64 217.536,91.024 218.8,91.024 C220.8,91.024 221.84,89.984 221.84,88.688 C221.84,86.976 220.288,86.592 218.944,86.288 C217.936,86.048 217.056,85.808 217.056,85.056 C217.056,84.368 217.712,83.888 218.768,83.888 C219.76,83.888 220.608,84.304 221.072,84.864 L221.632,84.032 C221.008,83.408 220.08,82.912 218.768,82.912 C216.928,82.912 215.888,83.936 215.888,85.136 C215.888,86.736 217.376,87.088 218.688,87.392 C219.728,87.648 220.672,87.92 220.672,88.768 C220.672,89.52 220.032,90.048 218.848,90.048 C217.792,90.048 216.816,89.536 216.304,88.944 L215.68,89.808 Z" id="Path"></path>
            <path d="M7.088,110.832 L7.088,105.52 C7.088,103.648 5.728,102.912 4.096,102.912 C2.832,102.912 1.84,103.328 1.008,104.192 L1.568,105.024 C2.256,104.288 3.008,103.952 3.936,103.952 C5.056,103.952 5.888,104.544 5.888,105.584 L5.888,106.976 C5.264,106.256 4.384,105.92 3.328,105.92 C2.016,105.92 0.624,106.736 0.624,108.464 C0.624,110.144 2.016,111.024 3.328,111.024 C4.368,111.024 5.248,110.656 5.888,109.952 L5.888,110.832 L7.088,110.832 Z M5.888,109.2 C5.424,109.84 4.608,110.16 3.76,110.16 C2.64,110.16 1.856,109.456 1.856,108.48 C1.856,107.488 2.64,106.784 3.76,106.784 C4.608,106.784 5.424,107.104 5.888,107.744 L5.888,109.2 Z" id="Shape"></path>
            <path d="M15.904,110.832 L15.904,105.408 C15.904,103.728 15.056,102.912 13.44,102.912 C12.288,102.912 11.232,103.584 10.688,104.224 L10.688,103.104 L9.488,103.104 L9.488,110.832 L10.688,110.832 L10.688,105.184 C11.136,104.56 12.032,103.984 12.976,103.984 C14.016,103.984 14.704,104.416 14.704,105.776 L14.704,110.832 L15.904,110.832 Z" id="Path"></path>
            <path d="M25.104,110.832 L25.104,100.16 L23.904,100.16 L23.904,104.272 C23.28,103.424 22.336,102.912 21.296,102.912 C19.264,102.912 17.856,104.512 17.856,106.976 C17.856,109.488 19.28,111.024 21.296,111.024 C22.384,111.024 23.328,110.464 23.904,109.68 L23.904,110.832 L25.104,110.832 Z M23.904,108.736 C23.472,109.408 22.544,109.952 21.584,109.952 C20.032,109.952 19.104,108.688 19.104,106.976 C19.104,105.264 20.032,103.984 21.584,103.984 C22.544,103.984 23.472,104.56 23.904,105.232 L23.904,108.736 Z" id="Shape"></path>
            <path d="M37.664,110.832 L37.664,105.52 C37.664,103.648 36.304,102.912 34.672,102.912 C33.408,102.912 32.416,103.328 31.584,104.192 L32.144,105.024 C32.832,104.288 33.584,103.952 34.512,103.952 C35.632,103.952 36.464,104.544 36.464,105.584 L36.464,106.976 C35.84,106.256 34.96,105.92 33.904,105.92 C32.592,105.92 31.2,106.736 31.2,108.464 C31.2,110.144 32.592,111.024 33.904,111.024 C34.944,111.024 35.824,110.656 36.464,109.952 L36.464,110.832 L37.664,110.832 Z M36.464,109.2 C36,109.84 35.184,110.16 34.336,110.16 C33.216,110.16 32.432,109.456 32.432,108.48 C32.432,107.488 33.216,106.784 34.336,106.784 C35.184,106.784 36,107.104 36.464,107.744 L36.464,109.2 Z" id="Shape"></path>
            <polygon id="Path" points="43.44 110.832 46.656 103.104 45.344 103.104 42.784 109.44 40.208 103.104 38.912 103.104 42.128 110.832"></polygon>
            <path d="M47.456,106.96 C47.456,109.376 49.104,111.024 51.392,111.024 C52.656,111.024 53.696,110.608 54.464,109.84 L53.888,109.056 C53.28,109.68 52.384,110.032 51.504,110.032 C49.84,110.032 48.816,108.816 48.72,107.36 L54.976,107.36 L54.976,107.056 C54.976,104.736 53.6,102.912 51.264,102.912 C49.056,102.912 47.456,104.72 47.456,106.96 Z M51.248,103.904 C53.008,103.904 53.776,105.328 53.792,106.48 L48.72,106.48 C48.784,105.296 49.6,103.904 51.248,103.904 Z" id="Shape"></path>
            <path d="M58.112,110.832 L58.112,105.36 C58.464,104.736 59.472,104.128 60.208,104.128 C60.4,104.128 60.544,104.144 60.688,104.176 L60.688,102.944 C59.632,102.944 58.736,103.536 58.112,104.352 L58.112,103.104 L56.912,103.104 L56.912,110.832 L58.112,110.832 Z" id="Path"></path>
            <path d="M68.224,110.832 L68.224,105.52 C68.224,103.648 66.864,102.912 65.232,102.912 C63.968,102.912 62.976,103.328 62.144,104.192 L62.704,105.024 C63.392,104.288 64.144,103.952 65.072,103.952 C66.192,103.952 67.024,104.544 67.024,105.584 L67.024,106.976 C66.4,106.256 65.52,105.92 64.464,105.92 C63.152,105.92 61.76,106.736 61.76,108.464 C61.76,110.144 63.152,111.024 64.464,111.024 C65.504,111.024 66.384,110.656 67.024,109.952 L67.024,110.832 L68.224,110.832 Z M67.024,109.2 C66.56,109.84 65.744,110.16 64.896,110.16 C63.776,110.16 62.992,109.456 62.992,108.48 C62.992,107.488 63.776,106.784 64.896,106.784 C65.744,106.784 66.56,107.104 67.024,107.744 L67.024,109.2 Z" id="Shape"></path>
            <path d="M70.608,112.816 C71.52,113.712 72.416,113.968 73.728,113.968 C75.616,113.968 77.408,113.168 77.408,110.608 L77.408,103.104 L76.208,103.104 L76.208,104.272 C75.584,103.424 74.656,102.912 73.616,102.912 C71.584,102.912 70.176,104.448 70.176,106.928 C70.176,109.424 71.6,110.928 73.616,110.928 C74.704,110.928 75.648,110.336 76.208,109.552 L76.208,110.656 C76.208,112.352 75.008,112.976 73.728,112.976 C72.624,112.976 71.856,112.688 71.216,111.92 L70.608,112.816 Z M76.208,108.608 C75.792,109.28 74.864,109.872 73.904,109.872 C72.352,109.872 71.424,108.624 71.424,106.928 C71.424,105.216 72.352,103.984 73.904,103.984 C74.864,103.984 75.792,104.56 76.208,105.232 L76.208,108.608 Z" id="Shape"></path>
            <path d="M79.36,106.96 C79.36,109.376 81.008,111.024 83.296,111.024 C84.56,111.024 85.6,110.608 86.368,109.84 L85.792,109.056 C85.184,109.68 84.288,110.032 83.408,110.032 C81.744,110.032 80.72,108.816 80.624,107.36 L86.88,107.36 L86.88,107.056 C86.88,104.736 85.504,102.912 83.168,102.912 C80.96,102.912 79.36,104.72 79.36,106.96 Z M83.152,103.904 C84.912,103.904 85.68,105.328 85.696,106.48 L80.624,106.48 C80.688,105.296 81.504,103.904 83.152,103.904 Z" id="Shape"></path>
            <path d="M95.616,110.832 L95.616,100.16 L94.416,100.16 L94.416,104.272 C93.792,103.424 92.848,102.912 91.808,102.912 C89.776,102.912 88.368,104.512 88.368,106.976 C88.368,109.488 89.792,111.024 91.808,111.024 C92.896,111.024 93.84,110.464 94.416,109.68 L94.416,110.832 L95.616,110.832 Z M94.416,108.736 C93.984,109.408 93.056,109.952 92.096,109.952 C90.544,109.952 89.616,108.688 89.616,106.976 C89.616,105.264 90.544,103.984 92.096,103.984 C93.056,103.984 93.984,104.56 94.416,105.232 L94.416,108.736 Z" id="Shape"></path>
            <path d="M105.52,111.024 C107.872,111.024 109.344,109.2 109.344,106.96 C109.344,104.72 107.872,102.912 105.52,102.912 C103.168,102.912 101.696,104.72 101.696,106.96 C101.696,109.2 103.168,111.024 105.52,111.024 Z M105.52,109.952 C103.872,109.952 102.944,108.544 102.944,106.96 C102.944,105.392 103.872,103.984 105.52,103.984 C107.168,103.984 108.08,105.392 108.08,106.96 C108.08,108.544 107.168,109.952 105.52,109.952 Z" id="Shape"></path>
            <path d="M117.712,110.832 L117.712,105.408 C117.712,103.728 116.864,102.912 115.248,102.912 C114.096,102.912 113.04,103.584 112.496,104.224 L112.496,103.104 L111.296,103.104 L111.296,110.832 L112.496,110.832 L112.496,105.184 C112.944,104.56 113.84,103.984 114.784,103.984 C115.824,103.984 116.512,104.416 116.512,105.776 L116.512,110.832 L117.712,110.832 Z" id="Path"></path>
            <path d="M130.272,110.832 L130.272,105.52 C130.272,103.648 128.912,102.912 127.28,102.912 C126.016,102.912 125.024,103.328 124.192,104.192 L124.752,105.024 C125.44,104.288 126.192,103.952 127.12,103.952 C128.24,103.952 129.072,104.544 129.072,105.584 L129.072,106.976 C128.448,106.256 127.568,105.92 126.512,105.92 C125.2,105.92 123.808,106.736 123.808,108.464 C123.808,110.144 125.2,111.024 126.512,111.024 C127.552,111.024 128.432,110.656 129.072,109.952 L129.072,110.832 L130.272,110.832 Z M129.072,109.2 C128.608,109.84 127.792,110.16 126.944,110.16 C125.824,110.16 125.04,109.456 125.04,108.48 C125.04,107.488 125.824,106.784 126.944,106.784 C127.792,106.784 128.608,107.104 129.072,107.744 L129.072,109.2 Z" id="Shape"></path>
            <path d="M140.496,110.832 C143.808,110.832 145.968,108.544 145.968,105.504 C145.968,102.48 143.808,100.16 140.496,100.16 L136.848,100.16 L136.848,110.832 L140.496,110.832 Z M138.176,101.344 L140.496,101.344 C143.136,101.344 144.592,103.2 144.592,105.504 C144.592,107.792 143.088,109.648 140.496,109.648 L138.176,109.648 L138.176,101.344 Z" id="Shape"></path>
            <path d="M148.592,101.808 C149.04,101.808 149.408,101.44 149.408,100.992 C149.408,100.544 149.04,100.192 148.592,100.192 C148.16,100.192 147.792,100.544 147.792,100.992 C147.792,101.44 148.16,101.808 148.592,101.808 Z M149.2,110.832 L149.2,103.104 L148,103.104 L148,110.832 L149.2,110.832 Z" id="Shape"></path>
            <path d="M151.584,112.816 C152.496,113.712 153.392,113.968 154.704,113.968 C156.592,113.968 158.384,113.168 158.384,110.608 L158.384,103.104 L157.184,103.104 L157.184,104.272 C156.56,103.424 155.632,102.912 154.592,102.912 C152.56,102.912 151.152,104.448 151.152,106.928 C151.152,109.424 152.576,110.928 154.592,110.928 C155.68,110.928 156.624,110.336 157.184,109.552 L157.184,110.656 C157.184,112.352 155.984,112.976 154.704,112.976 C153.6,112.976 152.832,112.688 152.192,111.92 L151.584,112.816 Z M157.184,108.608 C156.768,109.28 155.84,109.872 154.88,109.872 C153.328,109.872 152.4,108.624 152.4,106.928 C152.4,105.216 153.328,103.984 154.88,103.984 C155.84,103.984 156.768,104.56 157.184,105.232 L157.184,108.608 Z" id="Shape"></path>
            <path d="M161.376,101.808 C161.824,101.808 162.192,101.44 162.192,100.992 C162.192,100.544 161.824,100.192 161.376,100.192 C160.944,100.192 160.576,100.544 160.576,100.992 C160.576,101.44 160.944,101.808 161.376,101.808 Z M161.984,110.832 L161.984,103.104 L160.784,103.104 L160.784,110.832 L161.984,110.832 Z" id="Shape"></path>
            <path d="M166.336,111.024 C167.04,111.024 167.472,110.816 167.776,110.528 L167.424,109.632 C167.264,109.808 166.944,109.952 166.608,109.952 C166.08,109.952 165.824,109.536 165.824,108.96 L165.824,104.16 L167.392,104.16 L167.392,103.104 L165.824,103.104 L165.824,100.992 L164.624,100.992 L164.624,103.104 L163.344,103.104 L163.344,104.16 L164.624,104.16 L164.624,109.216 C164.624,110.368 165.2,111.024 166.336,111.024 Z" id="Path"></path>
            <path d="M175.12,110.832 L175.12,105.52 C175.12,103.648 173.76,102.912 172.128,102.912 C170.864,102.912 169.872,103.328 169.04,104.192 L169.6,105.024 C170.288,104.288 171.04,103.952 171.968,103.952 C173.088,103.952 173.92,104.544 173.92,105.584 L173.92,106.976 C173.296,106.256 172.416,105.92 171.36,105.92 C170.048,105.92 168.656,106.736 168.656,108.464 C168.656,110.144 170.048,111.024 171.36,111.024 C172.4,111.024 173.28,110.656 173.92,109.952 L173.92,110.832 L175.12,110.832 Z M173.92,109.2 C173.456,109.84 172.64,110.16 171.792,110.16 C170.672,110.16 169.888,109.456 169.888,108.48 C169.888,107.488 170.672,106.784 171.792,106.784 C172.64,106.784 173.456,107.104 173.92,107.744 L173.92,109.2 Z" id="Shape"></path>
            <polygon id="Path" points="178.72 110.832 178.72 100.16 177.52 100.16 177.52 110.832"></polygon>
            <path d="M180.736,105.504 C180.736,108.656 182.864,111.024 186.032,111.024 C189.184,111.024 191.328,108.656 191.328,105.504 C191.328,102.352 189.184,99.984 186.032,99.984 C182.864,99.984 180.736,102.352 180.736,105.504 Z M189.952,105.504 C189.952,107.984 188.416,109.84 186.032,109.84 C183.632,109.84 182.112,107.984 182.112,105.504 C182.112,103.008 183.632,101.168 186.032,101.168 C188.416,101.168 189.952,103.008 189.952,105.504 Z" id="Shape"></path>
            <path d="M192.912,106.96 C192.912,109.264 194.464,111.024 196.768,111.024 C198.176,111.024 199.008,110.448 199.6,109.68 L198.8,108.944 C198.288,109.632 197.632,109.952 196.832,109.952 C195.184,109.952 194.16,108.672 194.16,106.96 C194.16,105.248 195.184,103.984 196.832,103.984 C197.632,103.984 198.288,104.288 198.8,104.992 L199.6,104.256 C199.008,103.488 198.176,102.912 196.768,102.912 C194.464,102.912 192.912,104.672 192.912,106.96 Z" id="Path"></path>
            <path d="M200.832,106.96 C200.832,109.376 202.48,111.024 204.768,111.024 C206.032,111.024 207.072,110.608 207.84,109.84 L207.264,109.056 C206.656,109.68 205.76,110.032 204.88,110.032 C203.216,110.032 202.192,108.816 202.096,107.36 L208.352,107.36 L208.352,107.056 C208.352,104.736 206.976,102.912 204.64,102.912 C202.432,102.912 200.832,104.72 200.832,106.96 Z M204.624,103.904 C206.384,103.904 207.152,105.328 207.168,106.48 L202.096,106.48 C202.16,105.296 202.976,103.904 204.624,103.904 Z" id="Shape"></path>
            <path d="M216.32,110.832 L216.32,105.52 C216.32,103.648 214.96,102.912 213.328,102.912 C212.064,102.912 211.072,103.328 210.24,104.192 L210.8,105.024 C211.488,104.288 212.24,103.952 213.168,103.952 C214.288,103.952 215.12,104.544 215.12,105.584 L215.12,106.976 C214.496,106.256 213.616,105.92 212.56,105.92 C211.248,105.92 209.856,106.736 209.856,108.464 C209.856,110.144 211.248,111.024 212.56,111.024 C213.6,111.024 214.48,110.656 215.12,109.952 L215.12,110.832 L216.32,110.832 Z M215.12,109.2 C214.656,109.84 213.84,110.16 212.992,110.16 C211.872,110.16 211.088,109.456 211.088,108.48 C211.088,107.488 211.872,106.784 212.992,106.784 C213.84,106.784 214.656,107.104 215.12,107.744 L215.12,109.2 Z" id="Shape"></path>
            <path d="M225.136,110.832 L225.136,105.408 C225.136,103.728 224.288,102.912 222.672,102.912 C221.52,102.912 220.464,103.584 219.92,104.224 L219.92,103.104 L218.72,103.104 L218.72,110.832 L219.92,110.832 L219.92,105.184 C220.368,104.56 221.264,103.984 222.208,103.984 C223.248,103.984 223.936,104.416 223.936,105.776 L223.936,110.832 L225.136,110.832 Z" id="Path"></path>
            <path d="M6.768,130.832 L6.768,128.128 L8.272,128.128 L8.272,126.96 L6.768,126.96 L6.768,120.16 L4.944,120.16 L0.368,127.024 L0.368,128.128 L5.44,128.128 L5.44,130.832 L6.768,130.832 Z M5.44,126.96 L1.696,126.96 L5.44,121.392 L5.44,126.96 Z" id="Shape"></path>
            <path d="M9.6,125.504 C9.6,128.816 12.048,131.04 15.088,131.04 C16.832,131.04 18.288,130.304 19.28,129.2 L19.28,125.344 L14.288,125.344 L14.288,126.528 L17.952,126.528 L17.952,128.704 C17.424,129.232 16.368,129.856 15.088,129.856 C12.752,129.856 10.976,128.032 10.976,125.504 C10.976,122.96 12.752,121.168 15.088,121.168 C16.368,121.168 17.504,121.776 18.176,122.64 L19.232,121.984 C18.288,120.816 16.976,119.984 15.088,119.984 C12.048,119.984 9.6,122.192 9.6,125.504 Z" id="Path"></path>
            <path d="M26.304,130.832 C28.256,130.832 29.392,129.664 29.392,127.952 C29.392,126.672 28.448,125.504 27.312,125.328 C28.288,125.12 29.184,124.224 29.184,122.88 C29.184,121.28 28.048,120.16 26.192,120.16 L21.44,120.16 L21.44,130.832 L26.304,130.832 Z M22.768,121.344 L25.968,121.344 C27.168,121.344 27.808,122.112 27.808,123.072 C27.808,124.048 27.168,124.784 25.968,124.784 L22.768,124.784 L22.768,121.344 Z M22.768,125.968 L26.032,125.968 C27.344,125.968 28.016,126.832 28.016,127.808 C28.016,128.944 27.28,129.648 26.032,129.648 L22.768,129.648 L22.768,125.968 Z" id="Shape"></path>
            <path d="M42.384,130.832 L42.384,120.16 L41.184,120.16 L41.184,124.272 C40.56,123.424 39.616,122.912 38.576,122.912 C36.544,122.912 35.136,124.512 35.136,126.976 C35.136,129.488 36.56,131.024 38.576,131.024 C39.664,131.024 40.608,130.464 41.184,129.68 L41.184,130.832 L42.384,130.832 Z M41.184,128.736 C40.752,129.408 39.824,129.952 38.864,129.952 C37.312,129.952 36.384,128.688 36.384,126.976 C36.384,125.264 37.312,123.984 38.864,123.984 C39.824,123.984 40.752,124.56 41.184,125.232 L41.184,128.736 Z" id="Shape"></path>
            <path d="M45.984,130.832 L45.984,125.36 C46.336,124.736 47.344,124.128 48.08,124.128 C48.272,124.128 48.416,124.144 48.56,124.176 L48.56,122.944 C47.504,122.944 46.608,123.536 45.984,124.352 L45.984,123.104 L44.784,123.104 L44.784,130.832 L45.984,130.832 Z" id="Path"></path>
            <path d="M53.44,131.024 C55.792,131.024 57.264,129.2 57.264,126.96 C57.264,124.72 55.792,122.912 53.44,122.912 C51.088,122.912 49.616,124.72 49.616,126.96 C49.616,129.2 51.088,131.024 53.44,131.024 Z M53.44,129.952 C51.792,129.952 50.864,128.544 50.864,126.96 C50.864,125.392 51.792,123.984 53.44,123.984 C55.088,123.984 56,125.392 56,126.96 C56,128.544 55.088,129.952 53.44,129.952 Z" id="Shape"></path>
            <path d="M60.416,129.664 C61.04,130.528 61.968,131.024 63.024,131.024 C65.056,131.024 66.464,129.456 66.464,126.96 C66.464,124.448 65.056,122.912 63.024,122.912 C61.936,122.912 60.976,123.472 60.416,124.256 L60.416,123.104 L59.216,123.104 L59.216,133.776 L60.416,133.776 L60.416,129.664 Z M65.2,126.96 C65.2,128.672 64.272,129.952 62.72,129.952 C61.776,129.952 60.832,129.376 60.416,128.704 L60.416,125.216 C60.832,124.544 61.776,123.984 62.72,123.984 C64.272,123.984 65.2,125.248 65.2,126.96 Z" id="Shape"></path>
            <polygon id="Path" points="69.6 130.832 69.6 120.16 68.4 120.16 68.4 130.832"></polygon>
            <path d="M71.552,126.96 C71.552,129.376 73.2,131.024 75.488,131.024 C76.752,131.024 77.792,130.608 78.56,129.84 L77.984,129.056 C77.376,129.68 76.48,130.032 75.6,130.032 C73.936,130.032 72.912,128.816 72.816,127.36 L79.072,127.36 L79.072,127.056 C79.072,124.736 77.696,122.912 75.36,122.912 C73.152,122.912 71.552,124.72 71.552,126.96 Z M75.344,123.904 C77.104,123.904 77.872,125.328 77.888,126.48 L72.816,126.48 C72.88,125.296 73.696,123.904 75.344,123.904 Z" id="Shape"></path>
            <path d="M82.96,131.024 C83.664,131.024 84.096,130.816 84.4,130.528 L84.048,129.632 C83.888,129.808 83.568,129.952 83.232,129.952 C82.704,129.952 82.448,129.536 82.448,128.96 L82.448,124.16 L84.016,124.16 L84.016,123.104 L82.448,123.104 L82.448,120.992 L81.248,120.992 L81.248,123.104 L79.968,123.104 L79.968,124.16 L81.248,124.16 L81.248,129.216 C81.248,130.368 81.824,131.024 82.96,131.024 Z" id="Path"></path>
            <path d="M85.472,130.112 C85.472,130.592 85.872,130.992 86.352,130.992 C86.832,130.992 87.232,130.592 87.232,130.112 C87.232,129.632 86.832,129.232 86.352,129.232 C85.872,129.232 85.472,129.632 85.472,130.112 Z" id="Path"></path>
        </g>
    </g>
</svg>