<?xml version="1.0" encoding="UTF-8"?>
<svg width="700px" height="471px" viewBox="0 0 700 471" version="1.1" xmlns="http://www.w3.org/2000/svg" xmlns:xlink="http://www.w3.org/1999/xlink">
    <title>Artboard</title>
    <defs>
        <radialGradient cx="50%" cy="50%" fx="50%" fy="50%" r="50%" id="radialGradient-1">
            <stop stop-color="#FFE870" offset="0%"></stop>
            <stop stop-color="#FFE870" stop-opacity="0.44" offset="75.8823208%"></stop>
            <stop stop-color="#FFE870" stop-opacity="0" offset="100%"></stop>
        </radialGradient>
        <linearGradient x1="50%" y1="0%" x2="50%" y2="100%" id="linearGradient-2">
            <stop stop-color="#265BAB" offset="0%"></stop>
            <stop stop-color="#638ECF" offset="100%"></stop>
        </linearGradient>
        <radialGradient cx="19.0722348%" cy="11.8838275%" fx="19.0722348%" fy="11.8838275%" r="94.3334177%" id="radialGradient-3">
            <stop stop-color="#FFEFAA" offset="0%"></stop>
            <stop stop-color="#FFD500" offset="100%"></stop>
        </radialGradient>
        <linearGradient x1="38.0276588%" y1="27.7777778%" x2="71.4670489%" y2="72.2222222%" id="linearGradient-4">
            <stop stop-color="#4C80CF" offset="0%"></stop>
            <stop stop-color="#4884DE" offset="100%"></stop>
        </linearGradient>
        <path d="M0,0 L11,0 L11,4.66666667 C11,5.95533108 9.92937658,7 8.60869565,7 L2.39130435,7 C1.07062342,7 0,5.95533108 0,4.66666667 L0,0 Z" id="path-5"></path>
        <linearGradient x1="0%" y1="50%" x2="100%" y2="50%" id="linearGradient-7">
            <stop stop-color="#4A6ED3" offset="0%"></stop>
            <stop stop-color="#A7BEE2" offset="100%"></stop>
        </linearGradient>
        <path d="M0,0 L11,0 L11,4.66666667 C11,5.95533108 9.92937658,7 8.60869565,7 L2.39130435,7 C1.07062342,7 0,5.95533108 0,4.66666667 L0,0 Z" id="path-8"></path>
        <linearGradient x1="0%" y1="50%" x2="100%" y2="50%" id="linearGradient-10">
            <stop stop-color="#A7BEE2" offset="0%"></stop>
            <stop stop-color="#4A6ED3" offset="100%"></stop>
        </linearGradient>
        <linearGradient x1="0%" y1="41.6631944%" x2="100%" y2="58.3368056%" id="linearGradient-11">
            <stop stop-color="#FFED8A" offset="0%"></stop>
            <stop stop-color="#FFFDF0" offset="100%"></stop>
        </linearGradient>
        <linearGradient x1="56.7680294%" y1="0%" x2="43.2319706%" y2="100%" id="linearGradient-12">
            <stop stop-color="#FFFDF2" offset="0%"></stop>
            <stop stop-color="#FFDB1F" offset="100%"></stop>
        </linearGradient>
        <linearGradient x1="0%" y1="57.3376896%" x2="100%" y2="42.6623104%" id="linearGradient-13">
            <stop stop-color="#FFE23D" offset="0%"></stop>
            <stop stop-color="#FFFAE0" offset="100%"></stop>
        </linearGradient>
        <linearGradient x1="56.7680294%" y1="0%" x2="43.2319706%" y2="100%" id="linearGradient-14">
            <stop stop-color="#FFE557" offset="0%"></stop>
            <stop stop-color="#FFFAE0" offset="100%"></stop>
        </linearGradient>
        <rect id="path-15" x="0" y="0" width="244" height="177" rx="7"></rect>
        <rect id="path-17" x="0" y="89" width="122" height="89"></rect>
        <filter x="-4.1%" y="-5.6%" width="108.2%" height="111.2%" filterUnits="objectBoundingBox" id="filter-18">
            <feGaussianBlur stdDeviation="4.5" in="SourceAlpha" result="shadowBlurInner1"></feGaussianBlur>
            <feOffset dx="0" dy="1" in="shadowBlurInner1" result="shadowOffsetInner1"></feOffset>
            <feComposite in="shadowOffsetInner1" in2="SourceAlpha" operator="arithmetic" k2="-1" k3="1" result="shadowInnerInner1"></feComposite>
            <feColorMatrix values="0 0 0 0 0   0 0 0 0 0   0 0 0 0 0  0 0 0 0.103283435 0" type="matrix" in="shadowInnerInner1"></feColorMatrix>
        </filter>
        <rect id="path-19" x="121" y="89" width="122" height="89"></rect>
        <filter x="-4.1%" y="-5.6%" width="108.2%" height="111.2%" filterUnits="objectBoundingBox" id="filter-20">
            <feGaussianBlur stdDeviation="4.5" in="SourceAlpha" result="shadowBlurInner1"></feGaussianBlur>
            <feOffset dx="0" dy="1" in="shadowBlurInner1" result="shadowOffsetInner1"></feOffset>
            <feComposite in="shadowOffsetInner1" in2="SourceAlpha" operator="arithmetic" k2="-1" k3="1" result="shadowInnerInner1"></feComposite>
            <feColorMatrix values="0 0 0 0 0   0 0 0 0 0   0 0 0 0 0  0 0 0 0.0967548077 0" type="matrix" in="shadowInnerInner1"></feColorMatrix>
        </filter>
    </defs>
    <g id="Artboard" stroke="none" stroke-width="1" fill="none" fill-rule="evenodd">
        <text id="Builtin-Craft-Image" font-family="ProximaNova-Semibold, Proxima Nova" font-size="20" font-weight="500" fill="#182B34">
            <tspan x="0.5" y="26">Builtin Craft Image Transforms</tspan>
        </text>
        <text id="Craft-+-Flux-Image-T" font-family="ProximaNova-Semibold, Proxima Nova" font-size="20" font-weight="500" fill="#182B34">
            <tspan x="0.5" y="234">Craft + Flux Image Transforms</tspan>
        </text>
        <g id="Group" transform="translate(39.000000, 66.000000)" fill="#E5422B" fill-rule="nonzero">
            <path d="M53.6849217,4.92112357e-05 L6.31507829,4.92112357e-05 C4.63820333,-0.00657903226 3.0280806,0.65660248 1.84234154,1.84234154 C0.65660248,3.0280806 -0.00657903226,4.63820333 4.92112357e-05,6.31507829 L4.92112357e-05,53.6849217 C-0.00657903226,55.3617967 0.65660248,56.9719194 1.84234154,58.1576585 C3.0280806,59.3433975 4.63820333,60.006579 6.31507829,59.9999508 L53.6849217,59.9999508 C57.1680305,59.9889217 59.9889217,57.1680305 59.9999508,53.6849217 L59.9999508,6.31507829 C60.006579,4.63820333 59.3433975,3.0280806 58.1576585,1.84234154 C56.9719194,0.65660248 55.3617967,-0.00657903226 53.6849217,4.92112357e-05 M29.8950003,36.5624783 C31.8599939,36.5624783 33.9649869,35.7874809 35.9999802,33.9649869 L38.8074709,37.1924762 C35.8574806,39.5799683 32.4899918,40.9124639 29.1225029,40.9124639 C22.4550249,40.9124639 18.2475388,36.4899785 19.2275356,30.2449992 C20.2100324,24.0000198 25.8950136,19.5800344 32.5624915,19.5800344 C35.7874809,19.5800344 38.8074709,20.8425303 40.9124639,23.1575226 L36.9824769,26.3850119 C35.8574806,24.9100168 33.9649869,23.9300201 31.8574939,23.9300201 C27.8575071,23.9300201 24.7725173,26.5275115 24.1400194,30.2449992 C23.5800212,33.9649869 25.8250138,36.5624783 29.8950003,36.5624783" id="Shape"></path>
        </g>
        <rect id="Rectangle" stroke="#E2E4E9" fill="#F3F4F6" x="163.5" y="66.5" width="182" height="59" rx="7"></rect>
        <path id="Line" d="M144,92 L153,96.5 L144,101 L144,97 L109,97 L109,96 L144,96 L144,92 Z" fill="#979797" fill-rule="nonzero"></path>
        <path id="Line" d="M223,303 L232,307.5 L223,312 L223,308 L193,308 L193,312 L184,307.5 L193,303 L193,307 L223,307 L223,303 Z" fill="#979797" fill-rule="nonzero"></path>
        <path id="Line" d="M391,92 L400,96.5 L391,101 L391,97 L356,97 L356,96 L391,96 L391,92 Z" fill="#979797" fill-rule="nonzero"></path>
        <text id="Your-Server" font-family="ProximaNova-RegularIt, Proxima Nova" font-size="12" font-style="italic" font-weight="normal" fill="#182B34">
            <tspan x="164.532" y="180">Your Server</tspan>
        </text>
        <text id="Your-Server" font-family="ProximaNova-RegularIt, Proxima Nova" font-size="12" font-style="italic" font-weight="normal" fill="#182B34">
            <tspan x="76.532" y="388">Your Server</tspan>
        </text>
        <text id="CDN-+-Storage-+-Proc" font-family="ProximaNova-RegularIt, Proxima Nova" font-size="12" font-style="italic" font-weight="normal" fill="#182B34">
            <tspan x="263.492" y="447">CDN + Storage + Processing</tspan>
        </text>
        <text id="GD-or-ImageMagick" font-family="ProximaNova-Regular, Proxima Nova" font-size="12" font-weight="normal" fill="#182B34">
            <tspan x="202.384" y="110">GD or ImageMagick</tspan>
        </text>
        <text id="Craft-Site" font-family="ProximaNova-Semibold, Proxima Nova" font-size="16" font-weight="500" fill="#182B34">
            <tspan x="35.5" y="147">Craft Site</tspan>
        </text>
        <g id="Group" transform="translate(39.000000, 274.000000)" fill="#E5422B" fill-rule="nonzero">
            <path d="M53.6849217,4.92112357e-05 L6.31507829,4.92112357e-05 C4.63820333,-0.00657903226 3.0280806,0.65660248 1.84234154,1.84234154 C0.65660248,3.0280806 -0.00657903226,4.63820333 4.92112357e-05,6.31507829 L4.92112357e-05,53.6849217 C-0.00657903226,55.3617967 0.65660248,56.9719194 1.84234154,58.1576585 C3.0280806,59.3433975 4.63820333,60.006579 6.31507829,59.9999508 L53.6849217,59.9999508 C57.1680305,59.9889217 59.9889217,57.1680305 59.9999508,53.6849217 L59.9999508,6.31507829 C60.006579,4.63820333 59.3433975,3.0280806 58.1576585,1.84234154 C56.9719194,0.65660248 55.3617967,-0.00657903226 53.6849217,4.92112357e-05 M29.8950003,36.5624783 C31.8599939,36.5624783 33.9649869,35.7874809 35.9999802,33.9649869 L38.8074709,37.1924762 C35.8574806,39.5799683 32.4899918,40.9124639 29.1225029,40.9124639 C22.4550249,40.9124639 18.2475388,36.4899785 19.2275356,30.2449992 C20.2100324,24.0000198 25.8950136,19.5800344 32.5624915,19.5800344 C35.7874809,19.5800344 38.8074709,20.8425303 40.9124639,23.1575226 L36.9824769,26.3850119 C35.8574806,24.9100168 33.9649869,23.9300201 31.8574939,23.9300201 C27.8575071,23.9300201 24.7725173,26.5275115 24.1400194,30.2449992 C23.5800212,33.9649869 25.8250138,36.5624783 29.8950003,36.5624783" id="Shape"></path>
        </g>
        <text id="Craft-Site" font-family="ProximaNova-Semibold, Proxima Nova" font-size="16" font-weight="500" fill="#182B34">
            <tspan x="35.5" y="355">Craft Site</tspan>
        </text>
        <text id="+" font-family="ProximaNova-Semibold, Proxima Nova" font-size="16" font-weight="500" fill="#182B34">
            <tspan x="110.5" y="309">+</tspan>
        </text>
        <text id="Flux" font-family="ProximaNova-Semibold, Proxima Nova" font-size="16" font-weight="500" fill="#182B34">
            <tspan x="138.5" y="355">Flux</tspan>
        </text>
        <text id="Users" font-family="ProximaNova-Semibold, Proxima Nova" font-size="16" font-weight="500" fill="#182B34">
            <tspan x="429.964" y="147">Users</tspan>
        </text>
        <text id="Resize-/-Transform" font-family="ProximaNova-Semibold, Proxima Nova" font-size="16" font-weight="500" fill="#182B34">
            <tspan x="188.28" y="94">Resize / Transform</tspan>
        </text>
        <g id="Group" transform="translate(428.000000, 75.000000)" stroke="#79849A" stroke-linecap="round" stroke-linejoin="round" stroke-width="3.5">
            <path d="M35.1726222,25 C40.5308444,26.8218932 44,29.7289265 44,33.0052882 C44,38.5261766 34.1498667,43 22,43 C9.85013333,43 0,38.5166579 0,32.9957694 C0,29.7308302 3.44373333,26.8333157 8.77066667,25.0095188" id="Path"></path>
            <circle id="Oval" cx="22" cy="5" r="5"></circle>
            <path d="M29,22.4904167 L29,18.1875 C29,14.2179534 25.6421356,11 21.5,11 C17.3578644,11 14,14.2179534 14,18.1875 L14,22.5 L17,22.5 L18.5,34 L24.5,34 L26,22.5 L29,22.4904167 Z" id="Path"></path>
        </g>
        <g id="Group" transform="translate(428.000000, 75.000000)" stroke="#79849A" stroke-linecap="round" stroke-linejoin="round" stroke-width="3.5">
            <path d="M35.1726222,25 C40.5308444,26.8218932 44,29.7289265 44,33.0052882 C44,38.5261766 34.1498667,43 22,43 C9.85013333,43 0,38.5166579 0,32.9957694 C0,29.7308302 3.44373333,26.8333157 8.77066667,25.0095188" id="Path"></path>
            <circle id="Oval" cx="22" cy="5" r="5"></circle>
            <path d="M29,22.4904167 L29,18.1875 C29,14.2179534 25.6421356,11 21.5,11 C17.3578644,11 14,14.2179534 14,18.1875 L14,22.5 L17,22.5 L18.5,34 L24.5,34 L26,22.5 L29,22.4904167 Z" id="Path"></path>
        </g>
        <path id="Line" d="M475,303 L484,307.5 L475,312 L475,308 L440,308 L440,307 L475,307 L475,303 Z" fill="#979797" fill-rule="nonzero"></path>
        <text id="Users" font-family="ProximaNova-Semibold, Proxima Nova" font-size="16" font-weight="500" fill="#182B34">
            <tspan x="513.964" y="358">Users</tspan>
        </text>
        <g id="Group" transform="translate(512.000000, 286.000000)" stroke="#79849A" stroke-linecap="round" stroke-linejoin="round" stroke-width="3.5">
            <path d="M35.1726222,25 C40.5308444,26.8218932 44,29.7289265 44,33.0052882 C44,38.5261766 34.1498667,43 22,43 C9.85013333,43 0,38.5166579 0,32.9957694 C0,29.7308302 3.44373333,26.8333157 8.77066667,25.0095188" id="Path"></path>
            <circle id="Oval" cx="22" cy="5" r="5"></circle>
            <path d="M29,22.4904167 L29,18.1875 C29,14.2179534 25.6421356,11 21.5,11 C17.3578644,11 14,14.2179534 14,18.1875 L14,22.5 L17,22.5 L18.5,34 L24.5,34 L26,22.5 L29,22.4904167 Z" id="Path"></path>
        </g>
        <g id="Group" transform="translate(512.000000, 286.000000)" stroke="#79849A" stroke-linecap="round" stroke-linejoin="round" stroke-width="3.5">
            <path d="M35.1726222,25 C40.5308444,26.8218932 44,29.7289265 44,33.0052882 C44,38.5261766 34.1498667,43 22,43 C9.85013333,43 0,38.5166579 0,32.9957694 C0,29.7308302 3.44373333,26.8333157 8.77066667,25.0095188" id="Path"></path>
            <circle id="Oval" cx="22" cy="5" r="5"></circle>
            <path d="M29,22.4904167 L29,18.1875 C29,14.2179534 25.6421356,11 21.5,11 C17.3578644,11 14,14.2179534 14,18.1875 L14,22.5 L17,22.5 L18.5,34 L24.5,34 L26,22.5 L29,22.4904167 Z" id="Path"></path>
        </g>
        <g id="icon" transform="translate(131.000000, 280.000000)">
            <circle id="Oval" fill="url(#radialGradient-1)" fill-rule="nonzero" opacity="0.5029994" cx="22" cy="20" r="20"></circle>
            <ellipse id="Oval" fill="url(#linearGradient-2)" fill-rule="nonzero" cx="22" cy="45.5" rx="3" ry="2.5"></ellipse>
            <path d="M22,35.8970004 C24.1585228,35.8970004 28.6024436,36.332091 29.2333333,35.1389274 C31.9305663,30.0378125 36,26.9715289 36,21.5694637 C36,14.0752558 29.7319865,8 22,8 C14.2680135,8 8,14.0752558 8,21.5694637 C8,26.7105994 12.4148167,30.8477798 14.7666667,35.1389274 C15.464388,36.4119784 19.5722688,35.8970004 22,35.8970004 Z" id="Path" fill="url(#radialGradient-3)" fill-rule="nonzero"></path>
            <path d="M15,36 L30,36 L30,42.3636364 C30,44.3719445 28.2669087,46 26.1290323,46 L18.8709677,46 C16.7330913,46 15,44.3719445 15,42.3636364 L15,36 Z" id="Path" fill="url(#linearGradient-4)" fill-rule="nonzero"></path>
            <g id="Group" transform="translate(17.000000, 37.000000)">
                <g id="e-link" fill="#C5D9F7" fill-rule="nonzero">
                    <path d="M0,0 L11,0 L11,4.66666667 C11,5.95533108 9.92937658,7 8.60869565,7 L2.39130435,7 C1.07062342,7 0,5.95533108 0,4.66666667 L0,0 Z" id="e"></path>
                </g>
                <g id="Clipped">
                    <mask id="mask-6" fill="white">
                        <use xlink:href="#path-5"></use>
                    </mask>
                    <g id="e"></g>
                    <ellipse id="Oval" fill="url(#linearGradient-7)" fill-rule="nonzero" mask="url(#mask-6)" cx="1.19565217" cy="1.86666667" rx="5.26086957" ry="1"></ellipse>
                </g>
                <g id="Clipped">
                    <mask id="mask-9" fill="white">
                        <use xlink:href="#path-8"></use>
                    </mask>
                    <g id="e"></g>
                    <ellipse id="Oval" fill="url(#linearGradient-10)" fill-rule="nonzero" mask="url(#mask-9)" cx="9.56521739" cy="4.43333333" rx="5.5" ry="1"></ellipse>
                </g>
            </g>
            <path d="M19.1953586,12.0997976 C20.1519296,11.9574838 21.0965133,11.9704891 22,12.1189474 C16.5154642,13.2604398 12.6624744,17.824232 12.6144144,23 C12.381128,22.4527179 12.2086254,21.8723315 12.1062436,21.2651372 C11.3694364,16.895364 14.5433413,12.7919017 19.1953586,12.0997976 L19.1953586,12.0997976 Z" id="Path" fill="#FFFFFF" fill-rule="nonzero"></path>
            <line x1="22" y1="2" x2="37" y2="8" id="Path" stroke="url(#linearGradient-11)" stroke-width="3" stroke-linecap="square"></line>
            <line x1="37" y1="8" x2="43" y2="22" id="Path" stroke="#FFFAE0" stroke-width="3" stroke-linecap="square"></line>
            <line x1="43" y1="22" x2="38" y2="36" id="Path" stroke="url(#linearGradient-12)" stroke-width="3" stroke-linecap="square"></line>
            <line x1="22" y1="2" x2="6" y2="8" id="Path" stroke="url(#linearGradient-13)" stroke-width="3" stroke-linecap="square"></line>
            <line x1="7" y1="8" x2="2" y2="22" id="Path" stroke="url(#linearGradient-14)" stroke-width="3" stroke-linecap="square"></line>
            <line x1="2" y1="22" x2="7" y2="36" id="Path" stroke="#FFFAE0" stroke-width="3" stroke-linecap="square"></line>
            <circle id="Oval" fill="#FFD80E" fill-rule="nonzero" cx="37.5" cy="35.5" r="1.5"></circle>
            <circle id="Oval" fill="#FFD80E" fill-rule="nonzero" cx="6.5" cy="35.5" r="1.5"></circle>
            <circle id="Oval" fill="#FFD80E" fill-rule="nonzero" cx="1.5" cy="21.5" r="1.5"></circle>
            <circle id="Oval" fill="#FFD80E" fill-rule="nonzero" cx="42.5" cy="21.5" r="1.5"></circle>
            <circle id="Oval" fill="#FFD80E" fill-rule="nonzero" cx="36.5" cy="8.5" r="1.5"></circle>
            <circle id="Oval" fill="#FFD80E" fill-rule="nonzero" cx="6.5" cy="8.5" r="1.5"></circle>
            <circle id="Oval" fill="#FFD80E" fill-rule="nonzero" cx="22.5" cy="1.5" r="1.5"></circle>
        </g>
        <rect id="Rectangle" stroke="#DCDFE5" x="11.5" y="48.5" width="366" height="116" rx="7"></rect>
        <rect id="Rectangle" stroke="#DCDFE5" x="11.5" y="256.5" width="190" height="116" rx="7"></rect>
        <g id="Rectangle-+-Rectangle-Mask" transform="translate(216.000000, 255.000000)">
            <mask id="mask-16" fill="white">
                <use xlink:href="#path-15"></use>
            </mask>
            <rect stroke="#DCDFE5" x="0.5" y="0.5" width="243" height="176" rx="7"></rect>
            <g id="Rectangle" mask="url(#mask-16)">
                <use fill="#569A31" fill-rule="evenodd" xlink:href="#path-17"></use>
                <use fill="black" fill-opacity="1" filter="url(#filter-18)" xlink:href="#path-17"></use>
            </g>
            <text id="S3" mask="url(#mask-16)" font-family="ProximaNova-Semibold, Proxima Nova" font-size="16" font-weight="500" fill="#FFFFFF">
                <tspan x="52" y="158">S3</tspan>
            </text>
            <path d="M71.6874583,120.885958 L71.8324583,119.8045 C72.97675,120.5005 73.3525417,120.918583 73.4685417,121.098625 C73.2752083,121.136083 72.7894583,121.154208 71.6874583,120.885958 Z M69.0605417,130.538125 C69.0565613,130.56736 69.0545429,130.596829 69.0545,130.626333 C69.0545,130.727833 68.804375,131.115708 67.6963333,131.554333 C67.1306374,131.770456 66.5498943,131.944921 65.95875,132.076333 C64.2610417,132.469042 62.1790833,132.685333 60.0947083,132.685333 C54.521875,132.685333 51.1385417,131.254667 51.1385417,130.626333 C51.1384988,130.596829 51.1364804,130.56736 51.1325,130.538125 L48.6046667,111.769083 C48.7677917,111.863333 48.943,111.955167 49.1266667,112.043375 C49.1774167,112.067542 49.2305833,112.089292 49.2813333,112.11225 C49.44325,112.187167 49.61,112.259667 49.7852083,112.32975 L50.0015,112.413125 C50.1875833,112.483208 50.3809167,112.550875 50.5790833,112.616125 C50.6310417,112.631833 50.6805833,112.651167 50.7361667,112.668083 C50.9862917,112.746625 51.2472917,112.821542 51.51675,112.894042 L51.7294167,112.947208 C51.940875,113.000375 52.1559583,113.052333 52.3746667,113.100667 C52.7129221,113.175369 53.0525211,113.243853 53.3932917,113.306083 L53.5395,113.333875 C53.844,113.38825 54.1533333,113.436583 54.4675,113.481292 C54.5532917,113.494583 54.6415,113.505458 54.7285,113.517542 C54.9701667,113.550167 55.2118333,113.581583 55.4583333,113.610583 L55.7483333,113.643208 C56.044375,113.674625 56.3404167,113.703625 56.6425,113.727792 L56.740375,113.738667 C57.0726667,113.76525 57.407375,113.787 57.7432917,113.806333 L58.0248333,113.820833 C58.2785833,113.832917 58.53475,113.842583 58.7897083,113.851042 C59.9154122,113.888145 61.0421812,113.877663 62.167,113.819625 L62.4473333,113.806333 C62.78325,113.787 63.1179583,113.76525 63.45025,113.738667 L63.5469167,113.729 C63.849,113.704833 64.1474583,113.674625 64.4435,113.642 L64.7310833,113.610583 C64.9787917,113.581583 65.2240833,113.550167 65.4669583,113.517542 C65.5515417,113.505458 65.6373333,113.494583 65.7219167,113.481292 C66.0372917,113.436583 66.3490417,113.387042 66.65475,113.333875 L66.788875,113.309708 C67.0486667,113.261375 67.3048333,113.210625 67.5549583,113.158667 L67.811125,113.101875 C68.035875,113.052333 68.2557917,112.999167 68.470875,112.944792 L68.6714583,112.894042 C68.9433333,112.821542 69.2079583,112.746625 69.4617083,112.665667 C69.5100417,112.651167 69.55475,112.63425 69.6006667,112.61975 C69.8009235,112.554975 69.9995533,112.485273 70.196375,112.410708 C70.2664583,112.385333 70.334125,112.357542 70.4017917,112.330958 C70.5830417,112.258458 70.7558333,112.185958 70.921375,112.107417 C70.9672917,112.086875 71.0168333,112.066333 71.0615417,112.044583 C71.2464167,111.956375 71.4240417,111.863333 71.588375,111.769083 L70.4090417,120.523458 C67.4027083,119.580958 63.3946667,117.753958 61.5749167,116.898458 C61.5715963,116.174356 60.9843591,115.588738 60.26025,115.587417 C59.53525,115.587417 58.9455833,116.178292 58.9455833,116.902083 C58.9455833,117.627083 59.53525,118.217958 60.26025,118.217958 C60.4970833,118.217958 60.717,118.150292 60.909125,118.039125 C62.9874583,119.020292 67.1247917,120.89925 70.2314167,121.845375 L69.0605417,130.538125 Z M60.0947083,106.314667 C66.9544167,106.314667 71.7865417,108.440125 71.8759583,109.620667 L71.8590417,109.757208 C71.8469583,109.797083 71.8215833,109.838167 71.8010417,109.87925 C71.7829167,109.913083 71.769625,109.948125 71.74425,109.984375 C71.71525,110.02425 71.6741667,110.066542 71.6355,110.107625 C71.6016667,110.143875 71.573875,110.180125 71.534,110.216375 C71.4880833,110.258667 71.428875,110.300958 71.3732917,110.34325 C71.3249583,110.3795 71.283875,110.41575 71.2295,110.453208 C71.1654583,110.496708 71.0893333,110.539 71.015625,110.5825 C70.9552083,110.61875 70.9008333,110.655 70.834375,110.69125 C70.7522083,110.73475 70.65675,110.779458 70.566125,110.824167 C70.4948333,110.858 70.428375,110.893042 70.35225,110.926875 C70.25075,110.972792 70.138375,111.016292 70.0284167,111.061 C69.94625,111.093625 69.8713333,111.12625 69.783125,111.160083 C69.6659167,111.203583 69.5354167,111.247083 69.4085417,111.289375 C69.3179167,111.320792 69.2297083,111.353417 69.1330417,111.384833 C68.9989167,111.427125 68.8515,111.468208 68.710125,111.509292 C68.6074167,111.538292 68.51075,111.569708 68.4044167,111.5975 C68.2545833,111.638583 68.0926667,111.676042 67.934375,111.715917 C67.822,111.7425 67.7156667,111.7715 67.5984583,111.798083 C67.4305,111.83675 67.2516667,111.871792 67.07525,111.908042 C66.9568333,111.932208 66.8444583,111.957583 66.7212083,111.980542 C66.5339167,112.016792 66.3345417,112.049417 66.1387917,112.082042 C66.0179583,112.103792 65.8995417,112.125542 65.773875,112.144875 C65.5732917,112.176292 65.360625,112.202875 65.1515833,112.231875 C65.0186667,112.248792 64.8942083,112.268125 64.758875,112.285042 C64.5401667,112.312833 64.309375,112.334583 64.0822083,112.357542 C63.9492917,112.372042 63.8187917,112.38775 63.6810417,112.401042 C63.453875,112.420375 63.214625,112.436083 62.9802083,112.453 C62.8327917,112.463875 62.6902083,112.477167 62.540375,112.486833 C62.29025,112.501333 62.0304583,112.511 61.7730833,112.520667 C61.6280833,112.526708 61.4903333,112.535167 61.3453333,112.54 C60.5121621,112.564218 59.6784629,112.564218 58.8452917,112.54 C58.7002917,112.535167 58.5625417,112.526708 58.4199583,112.520667 C58.161375,112.511 57.900375,112.501333 57.65025,112.486833 C57.5028333,112.477167 57.3626667,112.462667 57.21525,112.454208 C56.979625,112.436083 56.7391667,112.420375 56.5095833,112.401042 C56.3766667,112.388958 56.2497917,112.372042 56.1180833,112.35875 C55.8885,112.334583 55.6540833,112.312833 55.43175,112.28625 L55.051125,112.233083 C54.8384583,112.204083 54.6221667,112.1775 54.41675,112.144875 C54.2959167,112.12675 54.18475,112.105 54.0663333,112.084458 C53.8645417,112.050625 53.6615417,112.018 53.4694167,111.980542 C53.3534167,111.958792 53.2482917,111.934625 53.1359167,111.912875 C52.9534583,111.874208 52.767375,111.837958 52.5921667,111.798083 C52.4834167,111.773917 52.383125,111.746125 52.278,111.72075 C52.11125,111.679667 51.9432917,111.639792 51.7862083,111.5975 C51.687125,111.570917 51.5965,111.541917 51.50225,111.514125 C51.3533277,111.473047 51.2050857,111.429541 51.0575833,111.383625 C50.9669583,111.354625 50.8872083,111.324417 50.8002083,111.295417 C50.6672917,111.250708 50.53075,111.204792 50.4075,111.158875 C50.3265417,111.128667 50.2564583,111.09725 50.1803333,111.065833 C50.0643333,111.019917 49.9447083,110.974 49.8395833,110.926875 C49.7670833,110.89425 49.7066667,110.861625 49.639,110.830208 C49.5423333,110.783083 49.44325,110.737167 49.3574583,110.690042 C49.294625,110.656208 49.243875,110.623583 49.185875,110.588542 C49.10975,110.542625 49.0287917,110.497917 48.9623333,110.452 C48.910375,110.416958 48.8717083,110.381917 48.8257917,110.348083 C48.7677917,110.303375 48.707375,110.259875 48.6578333,110.215167 C48.6191667,110.180125 48.5925833,110.146292 48.5611667,110.110042 C48.5212917,110.06775 48.4777917,110.025458 48.4487917,109.984375 C48.424625,109.948125 48.4113333,109.914292 48.3932083,109.880458 C48.3714583,109.838167 48.3460833,109.798292 48.334,109.757208 L48.315875,109.620667 C48.4077083,108.440125 53.238625,106.314667 60.0947083,106.314667 L60.0947083,106.314667 Z M74.814625,120.9645 C74.6720417,120.205667 73.799625,119.404542 72.023375,118.393167 L73.187,109.7415 C73.1910397,109.712271 73.1930584,109.682798 73.1930417,109.653292 C73.19425,106.910375 66.2910417,105 60.0959167,105 C53.902,105 47,106.910375 47,109.653292 C47,109.682389 47.0022236,109.711445 47.0060417,109.740292 L49.823875,130.677083 C49.9096667,133.096167 56.1507083,134 60.0947083,134 C62.27575,134 64.4628333,133.772833 66.2547917,133.358375 C66.977375,133.191625 67.6238333,132.995875 68.1784583,132.778375 C69.6042917,132.214083 70.3401667,131.506 70.3691667,130.677083 L71.5110417,122.197 C72.1840833,122.355292 72.7387083,122.435042 73.1894167,122.435042 C73.8419167,122.435042 74.2793333,122.2695 74.5596667,121.936 C74.7879274,121.667782 74.8813562,121.310083 74.8134167,120.9645 L74.814625,120.9645 Z" id="Shape" fill="#FFFFFF" fill-rule="nonzero" mask="url(#mask-16)"></path>
            <g id="Rectangle" mask="url(#mask-16)">
                <use fill="#FF9900" fill-rule="evenodd" xlink:href="#path-19"></use>
                <use fill="black" fill-opacity="1" filter="url(#filter-20)" xlink:href="#path-19"></use>
            </g>
            <path d="M173.362857,107 C173.007486,107.003746 172.718211,107.297975 172.717606,107.662409 L172.710961,113.592671 C172.710961,113.768001 172.783461,113.935234 172.903086,114.062834 C173.024885,114.184852 173.190578,114.252853 173.362978,114.251576 L177.505389,114.251576 L187.410104,135.615529 C187.514022,135.848695 187.745102,135.999169 188.000376,135.9999 L195.022006,135.9999 C195.38076,135.9999 195.677648,135.7041 195.677648,135.337491 L195.677648,129.407349 C195.677648,129.04062 195.388614,128.744941 195.022127,128.744941 L192.588783,128.744941 L182.732159,107.380988 C182.620509,107.149833 182.390201,107 182.135001,107 L173.369744,107 L173.362857,107 Z M174.014995,108.31793 L181.709425,108.31793 L191.569432,129.681762 C191.67335,129.914929 191.90443,130.065403 192.159704,130.066133 L194.356214,130.066133 L194.356214,134.678707 L188.40843,134.678707 L178.503956,113.314755 C178.400126,113.081531 178.168977,112.931059 177.913685,112.930504 L174.011491,112.930504 L174.014995,108.31793 Z M176.448217,118.270496 C176.194709,118.271825 175.972496,118.41465 175.86133,118.644596 L168.063949,135.049424 C167.966805,135.254684 167.981065,135.495316 168.10177,135.687666 C168.220225,135.87655 168.427885,135.9908 168.650837,135.989771 L176.105051,135.989771 C176.360758,135.99177 176.594672,135.846056 176.705593,135.61565 L180.789762,126.956727 C180.874728,126.777265 180.873438,126.568898 180.786258,126.390501 L177.04888,118.644717 C176.938485,118.415419 176.70621,118.269906 176.451722,118.270496 L176.448217,118.270496 Z M176.455105,120.449847 L179.46144,126.675427 L175.689746,134.675324 L169.690729,134.675324 L176.455105,120.449847 Z" id="Shape" fill="#000000" fill-rule="nonzero" mask="url(#mask-16)"></path>
            <text id="Lambda" mask="url(#mask-16)" font-family="ProximaNova-Semibold, Proxima Nova" font-size="16" font-weight="500" fill="#182B34">
                <tspan x="153" y="163">Lambda</tspan>
            </text>
        </g>
        <g id="AWS" transform="translate(314.000000, 274.000000)" fill="#000000" fill-rule="nonzero">
            <path d="M13.8081109,10.5314939 C13.8081109,11.1295987 13.8734446,11.6125279 13.9877785,11.9661371 C14.1184459,12.321767 14.2817801,12.7097269 14.510448,13.1300167 C14.5921151,13.2573161 14.6247819,13.386636 14.6247819,13.499791 C14.6247819,13.6614409 14.5267814,13.8230909 14.3144469,13.9847408 L13.2874831,14.6616499 C13.1633596,14.750224 13.0157047,14.8008083 12.8628142,14.8071349 C12.69948,14.8071349 12.5361458,14.7263099 12.3748532,14.580825 C12.1555291,14.3473475 11.9593121,14.0936101 11.7888918,13.8230909 C11.6063803,13.5131972 11.437445,13.1956647 11.2825557,12.8713768 C10.0126322,14.3545151 8.41399868,15.0960842 6.49073838,15.0960842 C5.12281439,15.0960842 4.03051687,14.7101449 3.23222093,13.9362458 C2.43392499,13.1603261 2.02763114,12.1298077 2.02763114,10.8386288 C2.02763114,9.46864548 2.51559209,8.35326087 3.50988908,7.51672241 C4.50418607,6.67816332 5.8231098,6.25787347 7.50136879,6.25787347 C8.0567051,6.25787347 8.62633315,6.30636845 9.22862804,6.38719342 C9.83296461,6.46801839 10.4536346,6.59733835 11.1028881,6.7428233 L11.1028881,5.56479933 C11.1028881,4.33828038 10.843595,3.4835563 10.337259,2.9844621 C9.81663119,2.48334727 8.93666815,2.24289298 7.6830781,2.24289298 C7.11140837,2.24289298 6.52340522,2.30553233 5.92111033,2.45101728 C5.31881544,2.59650223 4.73081229,2.77431717 4.16118424,3.00062709 C3.97545812,3.08292909 3.78449438,3.15312708 3.58951451,3.21077202 C3.50554375,3.23755678 3.41835033,3.25318488 3.33022145,3.25724638 C3.10155356,3.25724638 2.98721962,3.09559643 2.98721962,2.75815217 L2.98721962,1.96808807 C2.98721962,1.70944816 3.01988646,1.51546823 3.10155356,1.40231327 C3.22488297,1.25561331 3.38162037,1.13996494 3.55888934,1.06486901 C4.1285174,0.773899108 4.81247939,0.531424192 5.61077533,0.337444259 C6.4417768,0.126893806 7.29694217,0.0243268609 8.15470562,0.0323299889 C10.0942993,0.0323299889 11.5112236,0.468784838 12.4238535,1.33967391 C13.32015,2.20854236 13.7754441,3.53205128 13.7754441,5.30615942 L13.7754441,10.5314939 L13.8081109,10.5314939 Z M7.19307547,12.9845318 C7.73003668,12.9845318 8.28333131,12.8875418 8.87133446,12.6935619 C9.45729593,12.4995819 9.9799654,12.1459727 10.4189261,11.6630435 C10.6802608,11.3559086 10.8762619,11.0164437 10.9742624,10.6284838 C11.0702212,10.2425446 11.1375966,9.77375975 11.1375966,9.22617057 L11.1375966,8.54926143 C10.6429781,8.4299293 10.1419782,8.33818321 9.63696356,8.27445652 C9.12908336,8.21059557 8.61766766,8.17820247 8.10570536,8.17746656 C7.01340785,8.17746656 6.2151119,8.38761148 5.67610902,8.82406633 C5.13914781,9.25850056 4.87985475,9.87074972 4.87985475,10.6769788 C4.87985475,11.4347129 5.07381412,12.0004877 5.48214964,12.386427 C5.87211007,12.7905518 6.44173812,12.9845318 7.19307547,12.9845318 L7.19307547,12.9845318 Z M20.2802289,14.7263099 C19.9862273,14.7263099 19.7902263,14.6778149 19.6595589,14.56466 C19.5288915,14.46767 19.4145576,14.2413601 19.3165571,13.9362458 L15.4884116,1.46697324 C15.4139448,1.25789534 15.364605,1.04086873 15.3414108,0.820373467 C15.3414108,0.561733556 15.4720781,0.416248606 15.7313712,0.416248606 L17.3300048,0.416248606 C17.6382981,0.416248606 17.8506326,0.466764214 17.9629248,0.577898551 C18.0956339,0.674888517 18.1936344,0.901198439 18.2895932,1.20833333 L21.0295246,11.8853122 L23.5714132,1.20833333 C23.6530803,0.885033445 23.7510808,0.674888517 23.8797065,0.577898551 C24.0755947,0.459010381 24.3036705,0.402579394 24.5330433,0.416248606 L25.8356337,0.416248606 C26.1459686,0.416248606 26.3583031,0.466764214 26.4889705,0.577898551 C26.6175962,0.674888517 26.7339718,0.901198439 26.7972638,1.20833333 L29.3718193,12.0146321 L32.191376,1.20833333 C32.2893765,0.885033445 32.4037105,0.674888517 32.5180444,0.577898551 C32.7071655,0.459065619 32.9294208,0.402483385 33.1530062,0.416248606 L34.6699726,0.416248606 C34.9292657,0.416248606 35.0783082,0.547589186 35.0783082,0.820373467 C35.0783082,0.901198439 35.0599331,0.982023411 35.0435996,1.07901338 C35.0180257,1.21689172 34.9797548,1.35216421 34.9292657,1.48313824 L31.0031197,13.9503902 C30.9051191,14.2736901 30.7907852,14.4818144 30.6601178,14.5788043 C30.476161,14.6956084 30.2597305,14.7521625 30.0414895,14.7404543 L28.638857,14.7404543 C28.3305637,14.7404543 28.1182292,14.6919593 27.9855202,14.5788043 C27.8568945,14.4656494 27.7425605,14.2555045 27.6792685,13.9322046 L25.1516717,3.53003066 L22.6404082,13.9160396 C22.5587411,14.2393395 22.4627823,14.4494844 22.3341566,14.5626394 C22.2014475,14.6757943 21.9727796,14.7242893 21.6808197,14.7242893 L20.2802289,14.7263099 Z M41.2196744,15.1607441 C40.3723782,15.1607441 39.525082,15.0637542 38.7104526,14.8717949 C37.8958232,14.6778149 37.2608615,14.46767 36.8361926,14.2251951 C36.5748578,14.0817308 36.3972319,13.9200808 36.3318982,13.7745959 C36.2682338,13.6319641 36.2348765,13.477902 36.2338977,13.321976 L36.2338977,12.4995819 C36.2338977,12.1621377 36.364565,12.0004877 36.6075247,12.0004877 C36.7055252,12.0004877 36.8035257,12.0166527 36.9015262,12.0489827 C36.9995268,12.0813127 37.1465276,12.1459727 37.3098618,12.2106327 C37.8631564,12.4531076 38.4654513,12.6450669 39.1024547,12.7743868 C39.7537499,12.9037068 40.3887116,12.9683668 41.0420484,12.9683668 C42.0669706,12.9683668 42.8673082,12.7905518 43.4206028,12.434922 C43.9605294,12.1120788 44.2839727,11.5273994 44.267899,10.9032887 C44.2799697,10.4838531 44.1218916,10.0770883 43.8289383,9.77375975 C43.5349368,9.46864548 42.9796005,9.19384058 42.1813045,8.93520067 L39.8190835,8.20777592 C38.6287855,7.83800167 37.7488225,7.29041249 37.2118612,6.56500836 C36.6863253,5.89554015 36.3991998,5.07288325 36.3951902,4.22512542 C36.3951902,3.54821628 36.5442327,2.95213211 36.8361926,2.43485229 C37.1301941,1.91959309 37.5201546,1.46697324 38.0101572,1.11336399 C38.5001598,0.741569119 39.0514128,0.466764214 39.7047496,0.274804905 C40.3580864,0.0808249721 41.0420484,0 41.7586773,0 C42.1159708,0 42.4916395,0.0161649944 42.8509748,0.0646599777 C43.2246018,0.113154961 43.5655619,0.177814939 43.9085638,0.242474916 C44.2352322,0.323299889 44.5455672,0.404124861 44.8375271,0.499094203 C45.1315287,0.596084169 45.3601965,0.693074136 45.5235308,0.790064103 C45.7159356,0.885924498 45.8835661,1.02417606 46.0135334,1.19418896 C46.1187707,1.35110055 46.1696444,1.5376049 46.1584925,1.72561315 L46.1584925,2.48334727 C46.1584925,2.82281215 46.0278251,3.00062709 45.7828238,3.00062709 C45.5659134,2.97601203 45.3558531,2.91014454 45.1641955,2.80664716 C44.1796307,2.37619607 43.1125712,2.16181389 42.0363454,2.178233 C41.1073821,2.178233 40.3723782,2.32169732 39.8680838,2.62883222 C39.3617478,2.93596711 39.1024547,3.40273133 39.1024547,4.06347547 C39.1024547,4.51609532 39.2657889,4.90405518 39.5924573,5.20916945 C39.9170841,5.51630435 40.519379,5.82343924 41.3830086,6.09824415 L43.698271,6.82162765 C44.8701939,7.19342252 45.7195318,7.71070234 46.2238262,8.37144649 C46.7281205,9.03219064 46.9731219,9.78992475 46.9731219,10.6284838 C46.9731219,11.321558 46.8261211,11.9519928 46.5504946,12.4995819 C46.256493,13.0491918 45.8644909,13.532121 45.3601965,13.9200808 C44.8538605,14.3242057 44.2515656,14.613155 43.5512702,14.8232999 C42.8162663,15.0475892 42.0526788,15.1607441 41.2196744,15.1607441 L41.2196744,15.1607441 Z M44.3005659,23.0007664 C38.9391205,26.9207776 31.1480788,29 24.4513762,29 C15.0637426,29 6.607114,25.5649387 0.216663112,19.8546544 C-0.287631256,19.4040552 0.167662849,18.7897854 0.771999419,19.1454153 C7.68103642,23.1119008 16.2050404,25.5164437 25.0210043,25.5164437 C30.9704528,25.5164437 37.5038211,24.2899247 43.5186034,21.7742475 C44.4148998,21.3701226 45.1805289,22.3541667 44.3005659,23.0007664 Z M46.5341612,20.4830686 C45.8481575,19.6142001 42.0016369,20.0647993 40.2580442,20.2749443 C39.7374164,20.3396042 39.6557493,19.8869844 40.1294185,19.5475195 C43.1919349,17.4198021 48.2287536,18.0320513 48.8147151,18.7412904 C49.4006765,19.4687152 48.6513808,24.4515747 45.7828238,26.837932 C45.3438631,27.2097269 44.9191942,27.0157469 45.1151952,26.5328177 C45.7685321,24.9365245 47.2181232,21.3398133 46.5341612,20.4830686 L46.5341612,20.4830686 Z" id="Shape"></path>
        </g>
        <text id="CloudFront" font-family="ProximaNova-Semibold, Proxima Nova" font-size="16" font-weight="500" fill="#182B34">
            <tspan x="298" y="329">CloudFront</tspan>
        </text>
    </g>
</svg>